<svg width="381" height="300" viewBox="0 0 381 300" fill="none" xmlns="http://www.w3.org/2000/svg">
<path d="M309.987 104.558L368.676 86.9884L343.222 65.2947L348.674 9.71815L283.903 65.462L309.987 104.558Z" fill="url(#paint0_linear_16_69)"/>
<path d="M309.987 104.558L368.676 86.9884L343.222 65.2947L348.674 9.71815L283.903 65.462L309.987 104.558Z" fill="black" fill-opacity="0.25"/>
<path d="M62.8028 184.241L3.50652 220.07L37.3114 233.033L36.1108 269.108L66.7045 232.187L62.8028 184.241Z" fill="url(#paint1_linear_16_69)"/>
<path d="M62.8028 184.241L3.50652 220.07L37.3114 233.033L36.1108 269.108L66.7045 232.187L62.8028 184.241Z" fill="black" fill-opacity="0.25"/>
<g filter="url(#filter0_d_16_69)">
<path d="M35.0596 187.473L315.667 29.8544L324.167 96.8545L56.05 248.403L35.0596 187.473Z" fill="#FCAE18"/>
<path d="M35.0596 187.473L315.667 29.8544L324.167 96.8545L56.05 248.403L35.0596 187.473Z" fill="url(#paint2_linear_16_69)"/>
</g>
<path d="M51.3348 206.654C51.306 206.07 51.4668 205.519 51.8173 205C52.1749 204.456 52.6952 203.991 53.3783 203.607C54.4517 203.002 55.5254 202.911 56.5995 203.335C57.6806 203.733 58.6976 204.777 59.6504 206.469L64.5564 215.178L62.7771 198.955L65.6558 197.333L73.2681 209.306L73.5935 210.055L72.0474 193.733L75.3896 191.85L76.6393 212.324L71.443 215.251L66.7774 208.11L67.7349 217.34L61.8556 220.652L54.5273 209.355C53.9838 208.504 53.4297 207.863 52.8651 207.431C52.3076 206.974 51.7975 206.715 51.3348 206.654ZM93.1669 198.065C93.6958 198.281 94.1389 198.706 94.4962 199.341C94.9909 200.219 95.0459 201.077 94.661 201.915C94.267 202.737 93.5577 203.437 92.533 204.014C91.9475 204.344 91.1709 204.695 90.2031 205.069C88.2909 205.782 87.0664 206.29 86.5297 206.592C85.993 206.895 85.6281 207.122 85.435 207.273C85.2327 207.409 84.97 207.589 84.6468 207.814L78.5774 190.022L89.0919 184.099C89.6508 185.091 89.8328 185.985 89.6381 186.78C89.4596 187.566 88.8987 188.225 87.9554 188.756C87.0121 189.288 85.937 189.604 84.7301 189.706L86.3788 194.401L90.7212 191.955C91.2068 192.817 91.3755 193.611 91.2275 194.337C91.0704 195.047 90.634 195.603 89.9184 196.006C89.219 196.4 88.604 196.64 88.0732 196.724C87.5425 196.809 87.239 196.841 87.1627 196.819L88.8818 201.925C89.2996 201.754 89.8745 201.462 90.6063 201.05C91.8586 200.345 92.7122 199.35 93.1669 198.065ZM107.538 189.969C108.067 190.186 108.547 190.676 108.977 191.44C109.399 192.189 109.449 192.963 109.13 193.765C108.817 194.541 108.156 195.213 107.148 195.781C106.563 196.111 105.778 196.467 104.794 196.85C102.849 197.581 101.616 198.094 101.096 198.387C100.592 198.671 100.243 198.889 100.05 199.04C99.8478 199.176 99.585 199.356 99.2618 199.581L93.1437 181.817L98.4863 178.807L103.605 193.599C103.835 193.512 104.047 193.414 104.242 193.304L104.852 192.961C106.219 192.191 107.114 191.194 107.538 189.969ZM122.865 179.632C123.462 179.703 123.949 180.072 124.324 180.738C124.691 181.389 124.86 182.033 124.833 182.669C124.813 183.28 124.628 183.92 124.276 184.59C123.52 186.023 122.1 187.326 120.019 188.499C117.953 189.662 116.049 190.028 114.306 189.596C112.57 189.138 111.161 187.95 110.08 186.031C108.55 183.315 107.911 180.525 108.162 177.663C108.374 175.529 109.257 173.597 110.81 171.865C111.618 170.981 112.511 170.264 113.487 169.715C114.462 169.165 115.288 168.786 115.963 168.577C116.638 168.368 117.276 168.265 117.878 168.269C119.191 168.279 120.104 168.74 120.617 169.651C121.084 170.48 121.102 171.424 120.669 172.481C120.265 173.438 119.77 174.081 119.185 174.41C118.599 174.74 118.162 174.933 117.872 174.989C117.607 174.367 117.369 173.869 117.159 173.495C116.939 173.105 116.743 172.776 116.571 172.508C116.399 172.241 116.199 172 115.971 171.786C115.469 171.276 114.966 171.163 114.462 171.447C113.974 171.721 113.611 172.237 113.373 172.992C113.141 173.723 113.034 174.597 113.051 175.616C113.09 177.929 113.7 180.135 114.882 182.233C115.45 183.241 116.184 183.878 117.083 184.143C117.973 184.391 119.028 184.172 120.247 183.485C121.158 182.972 121.875 182.172 122.398 181.084C122.626 180.613 122.781 180.129 122.865 179.632ZM126.842 176.203C125.111 173.129 124.497 170.175 125 167.342C125.51 164.291 127.237 161.937 130.18 160.279C132.311 159.078 134.206 158.696 135.866 159.133C137.516 159.553 138.956 160.852 140.183 163.031C142.052 166.349 142.686 169.452 142.085 172.34C141.482 175.187 139.773 177.403 136.96 178.988C134.764 180.225 132.823 180.6 131.135 180.115C129.455 179.605 128.024 178.301 126.842 176.203ZM130.414 167.539C131.331 170.878 132.44 173.703 133.741 176.012C134.052 176.565 134.398 176.97 134.779 177.227C135.176 177.475 135.618 177.462 136.106 177.187C136.61 176.903 136.952 176.56 137.133 176.158C137.305 175.74 137.361 175.194 137.303 174.52C137.199 173.422 136.803 171.845 136.116 169.789C135.437 167.708 134.898 166.276 134.5 165.494C134.093 164.695 133.724 164.003 133.394 163.417C133.065 162.832 132.705 162.402 132.315 162.129C131.926 161.856 131.487 161.856 130.999 162.131C130.527 162.397 130.211 162.768 130.051 163.244C129.761 164.136 129.882 165.567 130.414 167.539ZM147.881 172.193L143.227 153.604L148.326 150.732L154.629 159.297L153.985 147.544L158.255 145.139L165.482 156.943C166.445 158.5 167.455 159.303 168.51 159.351C168.514 159.777 168.343 160.291 167.997 160.893C167.651 161.495 167.128 161.993 166.428 162.387C165.745 162.772 165.146 162.981 164.629 163.015C164.113 163.049 163.649 162.968 163.238 162.771C162.501 162.414 161.817 161.675 161.185 160.553L156.939 153.014L158.152 166.407L155.127 168.111L147.249 158.119L150.687 170.612L147.881 172.193ZM179.843 149.239C180.372 149.455 180.815 149.881 181.172 150.515C181.667 151.393 181.722 152.251 181.337 153.089C180.943 153.911 180.234 154.611 179.209 155.188C178.623 155.518 177.847 155.87 176.879 156.243C174.967 156.956 173.742 157.464 173.206 157.766C172.669 158.069 172.304 158.296 172.111 158.447C171.909 158.583 171.646 158.763 171.323 158.988L165.253 141.196L175.768 135.273C176.327 136.265 176.509 137.159 176.314 137.954C176.135 138.74 175.575 139.399 174.631 139.931C173.688 140.462 172.613 140.778 171.406 140.88L173.055 145.575L177.397 143.129C177.883 143.991 178.051 144.785 177.903 145.511C177.746 146.221 177.31 146.777 176.594 147.18C175.895 147.574 175.28 147.814 174.749 147.898C174.218 147.983 173.915 148.015 173.839 147.994L175.558 153.099C175.975 152.928 176.55 152.636 177.282 152.224C178.534 151.519 179.388 150.524 179.843 149.239ZM189.636 140.83C187.905 137.756 187.291 134.803 187.794 131.969C188.304 128.918 190.031 126.564 192.974 124.906C195.105 123.705 197 123.324 198.66 123.76C200.31 124.18 201.749 125.479 202.977 127.659C204.846 130.976 205.48 134.079 204.879 136.968C204.275 139.814 202.567 142.03 199.753 143.615C197.558 144.852 195.616 145.228 193.929 144.743C192.249 144.232 190.818 142.928 189.636 140.83ZM193.208 132.166C194.125 135.505 195.234 138.33 196.535 140.64C196.846 141.193 197.192 141.598 197.573 141.855C197.969 142.102 198.412 142.089 198.9 141.814C199.404 141.53 199.746 141.187 199.927 140.785C200.099 140.367 200.155 139.821 200.097 139.147C199.992 138.049 199.597 136.472 198.91 134.417C198.231 132.336 197.692 130.904 197.294 130.121C196.887 129.322 196.518 128.63 196.188 128.044C195.859 127.459 195.499 127.029 195.109 126.756C194.72 126.483 194.281 126.484 193.793 126.758C193.321 127.024 193.005 127.395 192.845 127.871C192.555 128.763 192.676 130.194 193.208 132.166ZM211.236 136.504L205.094 118.753L210.339 115.799L220.384 124.731L216.169 112.514L218.891 111.013L224.971 128.767L219.384 131.914L209.866 123.232L213.92 134.992L211.236 136.504ZM229.711 125.936L223.784 108.225C225.611 106.981 227.143 106.011 228.379 105.315C229.615 104.619 230.664 104.103 231.525 103.768C232.377 103.417 233.149 103.228 233.841 103.202C235.208 103.118 236.294 103.791 237.101 105.223C237.568 106.052 237.641 107.018 237.319 108.121C237.009 109.13 236.53 109.915 235.881 110.473C236.734 110.164 237.603 110.146 238.486 110.42C239.419 110.708 240.156 111.332 240.697 112.292C241.741 114.146 241.879 116.007 241.111 117.875C240.333 119.727 238.586 121.418 235.87 122.948C234 124.002 231.947 124.998 229.711 125.936ZM234.33 121.47C234.486 121.404 234.58 121.361 234.612 121.343L234.832 121.219C236.165 120.468 236.869 119.493 236.944 118.294C236.982 117.373 236.648 116.286 235.943 115.034C235.567 114.367 235.059 113.978 234.418 113.868C233.794 113.748 232.985 113.947 231.991 114.464L234.33 121.47ZM232.991 107.57C232.231 106.22 231.2 105.911 229.899 106.644L229.68 106.768C229.615 106.804 229.538 106.858 229.449 106.93L231.373 112.627L231.617 112.489C233.688 111.259 234.146 109.619 232.991 107.57ZM244.034 110.187C242.302 107.113 241.688 104.16 242.192 101.326C242.701 98.2755 244.428 95.921 247.372 94.2627C249.502 93.0625 251.397 92.6806 253.057 93.1168C254.708 93.5367 256.147 94.8364 257.375 97.0157C259.243 100.334 259.877 103.436 259.276 106.325C258.673 109.171 256.964 111.387 254.151 112.972C251.955 114.209 250.014 114.585 248.327 114.1C246.646 113.589 245.215 112.285 244.034 110.187ZM247.605 101.523C248.522 104.863 249.631 107.687 250.932 109.997C251.244 110.55 251.59 110.955 251.97 111.212C252.367 111.459 252.809 111.446 253.297 111.171C253.801 110.887 254.144 110.544 254.324 110.142C254.496 109.724 254.553 109.178 254.494 108.504C254.39 107.406 253.994 105.829 253.308 103.774C252.628 101.693 252.089 100.261 251.691 99.4779C251.284 98.679 250.916 97.9867 250.586 97.4012C250.256 96.8157 249.896 96.3863 249.507 96.113C249.117 95.8398 248.678 95.8405 248.19 96.1154C247.719 96.3811 247.403 96.7519 247.242 97.2279C246.952 98.1198 247.073 99.5515 247.605 101.523ZM276.646 100.3C274.564 101.473 272.592 100.634 270.73 97.7839L266.534 100.148C266.63 101.079 266.747 101.934 266.886 102.713L267.296 104.924L263.881 106.848L262.495 86.4182L267.74 83.4636L275.444 94.7427C276.568 96.3587 277.598 97.2356 278.533 97.3733C278.592 98.5823 277.963 99.5579 276.646 100.3ZM266.287 97.9407L269.653 96.0443L265.829 89.9395L265.458 89.2808L265.883 94.0866L266.287 97.9407ZM281.724 96.7967L275.672 79.0922C277.181 78.0063 279.107 76.8037 281.449 75.4844C283.807 74.156 285.723 73.5264 287.198 73.5956C288.672 73.6649 289.799 74.3907 290.577 75.7731C291.347 77.1393 291.617 78.4549 291.387 79.72C291.173 80.9759 290.534 82.0857 289.47 83.0493C290.507 84.2434 291.649 85.2067 292.898 85.939C294.06 86.6338 295.075 86.9515 295.941 86.892C296.082 87.7125 295.983 88.4111 295.643 88.9879C295.33 89.5717 294.815 90.0652 294.099 90.4683C293.4 90.8623 292.659 91.0117 291.877 90.9166C291.086 90.8052 290.256 90.491 289.386 89.974C287.524 88.8373 285.807 86.9872 284.235 84.4237L284.405 84.3275C285.591 83.6171 286.31 82.7833 286.564 81.8263C286.808 80.853 286.559 79.7077 285.817 78.3904C284.892 76.7477 283.72 76.2832 282.301 76.9969L281.764 77.2993C281.618 77.3817 281.508 77.454 281.436 77.5161L286.945 93.8558L281.724 96.7967ZM310.142 67.4514C314.045 74.3798 312.24 79.9603 304.726 84.193C303.522 84.8709 301.846 85.6224 299.697 86.4474L294.307 70.4904C294.071 69.7666 293.888 69.1947 293.759 68.7748C296.13 67.2034 297.861 66.1107 298.95 65.4969C300.056 64.8739 301.177 64.3922 302.314 64.0519C303.451 63.7116 304.494 63.6057 305.445 63.7342C307.321 63.9842 308.887 65.2233 310.142 67.4514ZM304.608 69.3797C303.243 66.9564 301.691 66.2349 299.95 67.2152L299.706 67.3527C299.625 67.3985 299.548 67.4524 299.476 67.5145L304.343 82.0304C304.427 82.0263 304.501 82.0059 304.566 81.9692L304.761 81.8593C305.363 81.5203 305.867 80.9897 306.275 80.2675C306.698 79.5361 306.939 78.6508 306.996 77.6116C307.136 75.1975 306.34 72.4536 304.608 69.3797Z" fill="white"/>
<defs>
<filter id="filter0_d_16_69" x="10.3654" y="7.38498" width="362.968" height="292.408" filterUnits="userSpaceOnUse" color-interpolation-filters="sRGB">
<feFlood flood-opacity="0" result="BackgroundImageFix"/>
<feColorMatrix in="SourceAlpha" type="matrix" values="0 0 0 0 0 0 0 0 0 0 0 0 0 0 0 0 0 0 127 0" result="hardAlpha"/>
<feOffset dx="12.2358" dy="14.4605"/>
<feGaussianBlur stdDeviation="18.465"/>
<feComposite in2="hardAlpha" operator="out"/>
<feColorMatrix type="matrix" values="0 0 0 0 0.270833 0 0 0 0 0.00338542 0 0 0 0 0.211995 0 0 0 0.1 0"/>
<feBlend mode="normal" in2="BackgroundImageFix" result="effect1_dropShadow_16_69"/>
<feBlend mode="normal" in="SourceGraphic" in2="effect1_dropShadow_16_69" result="shape"/>
</filter>
<linearGradient id="paint0_linear_16_69" x1="308.476" y1="27.6158" x2="341.817" y2="102.531" gradientUnits="userSpaceOnUse">
<stop stop-color="#FF6978"/>
<stop offset="1" stop-color="#FB2FE5"/>
</linearGradient>
<linearGradient id="paint1_linear_16_69" x1="32.5562" y1="192.081" x2="61.7603" y2="257.699" gradientUnits="userSpaceOnUse">
<stop stop-color="#FF6978"/>
<stop offset="1" stop-color="#FB2FE5"/>
</linearGradient>
<linearGradient id="paint2_linear_16_69" x1="168.941" y1="90.1139" x2="204.143" y2="179.197" gradientUnits="userSpaceOnUse">
<stop stop-color="#FF6978"/>
<stop offset="1" stop-color="#FB2FE5"/>
</linearGradient>
</defs>
</svg>
