<svg width="40" height="40" viewBox="0 0 40 40" fill="none" xmlns="http://www.w3.org/2000/svg">
<circle cx="20" cy="20" r="20" fill="#666BE4"/>
<path d="M18 14.4999H22V12.8077C22 12.7179 21.9711 12.6442 21.9134 12.5865C21.8557 12.5288 21.782 12.4999 21.6923 12.4999H18.3077C18.218 12.4999 18.1442 12.5288 18.0865 12.5865C18.0288 12.6442 18 12.7179 18 12.8077V14.4999ZM26 30.4999C24.7513 30.4999 23.6891 30.0621 22.8135 29.1865C21.9378 28.3108 21.5 27.2486 21.5 25.9999C21.5 24.7512 21.9378 23.6891 22.8135 22.8134C23.6891 21.9378 24.7513 21.5 26 21.5C27.2487 21.5 28.3109 21.9378 29.1865 22.8134C30.0621 23.6891 30.5 24.7512 30.5 25.9999C30.5 27.2486 30.0621 28.3108 29.1865 29.1865C28.3109 30.0621 27.2487 30.4999 26 30.4999ZM12.3077 28.4999C11.8026 28.4999 11.375 28.3249 11.025 27.9749C10.675 27.6249 10.5 27.1973 10.5 26.6922V16.3077C10.5 15.8025 10.675 15.3749 11.025 15.0249C11.375 14.6749 11.8026 14.4999 12.3077 14.4999H16.5V12.8077C16.5 12.3026 16.675 11.875 17.025 11.525C17.375 11.175 17.8026 11 18.3077 11H21.6923C22.1974 11 22.625 11.175 22.975 11.525C23.325 11.875 23.5 12.3026 23.5 12.8077V14.4999H27.6923C28.1974 14.4999 28.625 14.6749 28.975 15.0249C29.325 15.3749 29.5 15.8025 29.5 16.3077V20.5442C28.9807 20.198 28.4227 19.9375 27.8259 19.7625C27.2291 19.5875 26.6205 19.5 26 19.5C24.2013 19.5 22.6683 20.1336 21.401 21.4009C20.1337 22.6682 19.5 24.2012 19.5 25.9999C19.5 26.4268 19.5414 26.8512 19.6241 27.273C19.7067 27.6948 19.8359 28.1038 20.0116 28.4999H12.3077ZM26.4423 25.8191V23.4999C26.4423 23.3794 26.3987 23.2756 26.3115 23.1884C26.2243 23.1012 26.1205 23.0576 26 23.0576C25.8795 23.0576 25.7756 23.1012 25.6885 23.1884C25.6013 23.2756 25.5577 23.3794 25.5577 23.4999V25.8038C25.5577 25.9243 25.5795 26.039 25.6231 26.148C25.6667 26.257 25.7352 26.3582 25.8288 26.4518L27.3385 27.9615C27.4256 28.0486 27.5279 28.0938 27.6452 28.097C27.7625 28.1002 27.8679 28.055 27.9615 27.9615C28.0551 27.8679 28.1019 27.764 28.1019 27.6499C28.1019 27.5358 28.0551 27.432 27.9615 27.3384L26.4423 25.8191Z" fill="white"/>
</svg>
