<svg width="40" height="40" viewBox="0 0 40 40" fill="none" xmlns="http://www.w3.org/2000/svg">
<circle cx="20" cy="20" r="20" fill="#00A524"/>
<path d="M18.5808 22.1462L16.2577 19.8231C16.1192 19.6846 15.9452 19.6138 15.7356 19.6106C15.5259 19.6074 15.3487 19.6782 15.2038 19.8231C15.059 19.9679 14.9865 20.1436 14.9865 20.35C14.9865 20.5564 15.059 20.732 15.2038 20.8769L17.9481 23.6211C18.1288 23.8019 18.3397 23.8923 18.5808 23.8923C18.8218 23.8923 19.0327 23.8019 19.2134 23.6211L24.7769 18.0577C24.9153 17.9192 24.9862 17.7452 24.9894 17.5356C24.9926 17.3259 24.9218 17.1487 24.7769 17.0038C24.632 16.859 24.4564 16.7865 24.25 16.7865C24.0436 16.7865 23.8679 16.859 23.7231 17.0038L18.5808 22.1462ZM20.0016 29.5C18.6877 29.5 17.4527 29.2506 16.2966 28.752C15.1404 28.2533 14.1347 27.5765 13.2795 26.7217C12.4243 25.8669 11.7472 24.8616 11.2483 23.706C10.7494 22.5504 10.5 21.3156 10.5 20.0017C10.5 18.6877 10.7493 17.4527 11.248 16.2966C11.7467 15.1404 12.4234 14.1347 13.2783 13.2795C14.1331 12.4243 15.1383 11.7472 16.294 11.2483C17.4496 10.7494 18.6844 10.5 19.9983 10.5C21.3122 10.5 22.5473 10.7493 23.7034 11.248C24.8596 11.7467 25.8652 12.4234 26.7205 13.2783C27.5757 14.1331 28.2527 15.1383 28.7516 16.294C29.2505 17.4496 29.5 18.6844 29.5 19.9983C29.5 21.3122 29.2506 22.5473 28.752 23.7034C28.2533 24.8596 27.5765 25.8652 26.7217 26.7205C25.8669 27.5757 24.8616 28.2527 23.706 28.7516C22.5504 29.2505 21.3156 29.5 20.0016 29.5Z" fill="white"/>
</svg>
