<svg width="181" height="42" viewBox="0 0 181 42" fill="none" xmlns="http://www.w3.org/2000/svg">
<g clip-path="url(#clip0_820_10783)">
<mask id="mask0_820_10783" style="mask-type:luminance" maskUnits="userSpaceOnUse" x="0" y="0" width="42" height="42">
<path d="M41.9522 0H0V41.9522H41.9522V0Z" fill="white"/>
</mask>
<g mask="url(#mask0_820_10783)">
<path d="M20.9774 19.1719C20.5579 19.2977 20.1384 19.5494 19.8027 19.8431C19.5091 20.1368 19.2993 20.5563 19.1735 20.9758C19.2993 21.3953 19.551 21.8149 19.8447 22.1505C20.1803 22.4441 20.5579 22.6959 20.9774 22.8217C21.3969 22.6959 21.8164 22.4441 22.1521 22.1505C22.4457 21.8568 22.6974 21.4373 22.8233 21.0178C22.6974 20.5982 22.4457 20.1787 22.1521 19.8431C21.8164 19.5075 21.4389 19.2977 20.9774 19.1719Z" fill="white"/>
<path d="M20.9761 0C9.39728 0 0 9.39728 0 20.9761C0 32.5549 9.39728 41.9522 20.9761 41.9522C32.5549 41.9522 41.9522 32.5549 41.9522 20.9761C41.9522 9.39728 32.5549 0 20.9761 0ZM31.0446 26.8913C30.9607 27.9821 30.4992 28.947 29.7441 29.7021C28.1079 31.3383 25.5489 31.5061 24.0805 29.9958L23.3673 29.3246L24.7098 27.9821L25.3811 28.6533C25.7167 28.947 26.1362 29.1567 26.5977 29.1148C27.9401 29.0728 29.0309 28.024 29.1567 26.6816C29.1987 26.1781 29.0309 25.6747 28.6953 25.2971L25.6328 22.2346L24.1644 23.703C24.0805 23.7869 23.9966 23.8288 23.9127 23.9127C23.8288 23.9966 23.7869 24.0386 23.703 24.1225L22.2346 25.5908L24.0386 27.3948L22.6961 28.7372L20.9761 26.9333L17.9136 29.9958C17.1584 30.7509 16.1516 31.1285 15.0608 31.0026C13.9701 30.9187 13.0052 30.4573 12.25 29.7021C10.6139 28.066 10.4461 25.5069 11.9564 24.0386L12.6276 23.3673L13.9701 24.7098L13.2988 25.3811C13.0052 25.7167 12.7954 26.1362 12.8374 26.5977C12.8793 27.9401 13.9281 29.0309 15.2706 29.1567C15.774 29.1987 16.2774 29.0309 16.655 28.6953L19.7175 25.6328L18.2492 24.1644C18.1653 24.0805 18.1233 23.9966 18.0394 23.9127C17.9555 23.8288 17.9136 23.7869 17.8297 23.703L16.3613 22.2346L14.5574 24.0386L13.2149 22.6961L15.0189 20.8922L11.9564 17.8297C11.2012 17.0745 10.8237 16.0677 10.9495 14.9769C11.0334 13.8862 11.4949 12.9213 12.25 12.1661C13.8862 10.53 16.4452 10.3622 17.9136 11.8725L18.5848 12.5437L17.2423 13.8862L16.5711 13.2149C16.2355 12.9213 15.816 12.7115 15.3545 12.7535C14.012 12.7954 12.9213 13.8442 12.7954 15.1867C12.7535 15.6901 12.9213 16.1935 13.2569 16.5711L16.3194 19.6336L17.7877 18.1653C17.8716 18.0814 17.9555 18.0394 18.0394 17.9555C18.1233 17.8716 18.1653 17.8297 18.2492 17.7458L19.7175 16.2774L17.9136 14.4735L19.256 13.131L21.06 14.935L24.1225 11.8725C24.8776 11.1173 25.8845 10.7398 26.9752 10.8656C28.066 10.9495 29.0309 11.411 29.786 12.1661C31.4222 13.8023 31.59 16.3613 30.0797 17.8297L29.4085 18.5429L28.066 17.2004L28.7372 16.5291C29.0309 16.1935 29.2407 15.774 29.1987 15.3125C29.1567 13.9701 28.1079 12.8793 26.7655 12.7535C26.262 12.7115 25.7586 12.8793 25.3811 13.2149L22.3185 16.2774L23.7869 17.7458C23.8708 17.8297 23.9127 17.9136 23.9966 17.9975C24.0805 18.0814 24.1225 18.1233 24.2064 18.2072L25.6747 19.6756L27.4787 17.8716L28.8211 19.2141L26.9333 20.9761L29.9958 24.0386C30.7509 24.7937 31.1285 25.8425 31.0446 26.8913Z" fill="white"/>
</g>
</g>
<mask id="path-4-outside-1_820_10783" maskUnits="userSpaceOnUse" x="52.4402" y="13" width="39" height="18" fill="black">
<rect fill="white" x="52.4402" y="13" width="39" height="18"/>
<path d="M64.9629 19.0154C64.9629 19.8684 64.7671 20.6515 64.3756 21.3647C63.984 22.0639 63.3827 22.6303 62.5716 23.0638C61.7606 23.4973 60.7537 23.714 59.5511 23.714H57.3276V29H53.7407V14.2748H59.5511C60.7257 14.2748 61.7186 14.4776 62.5297 14.8831C63.3408 15.2886 63.9491 15.848 64.3546 16.5612C64.7601 17.2744 64.9629 18.0924 64.9629 19.0154ZM59.2784 20.8613C59.9636 20.8613 60.474 20.7005 60.8096 20.3788C61.1453 20.0572 61.3131 19.6027 61.3131 19.0154C61.3131 18.4281 61.1453 17.9736 60.8096 17.6519C60.474 17.3303 59.9636 17.1695 59.2784 17.1695H57.3276V20.8613H59.2784ZM71.6757 19.2461C72.0953 18.6029 72.6197 18.0994 73.2489 17.7358C73.8782 17.3583 74.5774 17.1695 75.3466 17.1695V20.9662H74.3607C73.4657 20.9662 72.7945 21.1619 72.347 21.5535C71.8995 21.9311 71.6757 22.6023 71.6757 23.5672V29H68.0888V17.2953H71.6757V19.2461ZM83.6475 29.1678C82.5008 29.1678 81.466 28.9231 80.543 28.4336C79.6341 27.9442 78.9139 27.245 78.3825 26.336C77.8651 25.4271 77.6064 24.3643 77.6064 23.1477C77.6064 21.945 77.8721 20.8893 78.4035 19.9803C78.9349 19.0573 79.6621 18.3511 80.585 17.8617C81.5079 17.3723 82.5428 17.1275 83.6895 17.1275C84.8362 17.1275 85.871 17.3723 86.7939 17.8617C87.7169 18.3511 88.444 19.0573 88.9754 19.9803C89.5068 20.8893 89.7725 21.945 89.7725 23.1477C89.7725 24.3503 89.4998 25.4131 88.9545 26.336C88.4231 27.245 87.6889 27.9442 86.752 28.4336C85.829 28.9231 84.7942 29.1678 83.6475 29.1678ZM83.6475 26.0633C84.3327 26.0633 84.9131 25.8116 85.3885 25.3082C85.878 24.8048 86.1227 24.0846 86.1227 23.1477C86.1227 22.2107 85.885 21.4906 85.4095 20.9871C84.948 20.4837 84.3747 20.232 83.6895 20.232C82.9903 20.232 82.4099 20.4837 81.9484 20.9871C81.487 21.4766 81.2562 22.1968 81.2562 23.1477C81.2562 24.0846 81.48 24.8048 81.9275 25.3082C82.3889 25.8116 82.9623 26.0633 83.6475 26.0633Z"/>
</mask>
<path d="M64.3756 21.3647L65.3354 21.9022L65.3398 21.8941L64.3756 21.3647ZM62.5716 23.0638L62.0531 22.0936H62.0531L62.5716 23.0638ZM57.3276 23.714V22.614C56.7201 22.614 56.2276 23.1065 56.2276 23.714H57.3276ZM57.3276 29V30.1C57.9351 30.1 58.4276 29.6075 58.4276 29H57.3276ZM53.7407 29H52.6407C52.6407 29.6075 53.1332 30.1 53.7407 30.1V29ZM53.7407 14.2748V13.1748C53.1332 13.1748 52.6407 13.6673 52.6407 14.2748H53.7407ZM62.5297 14.8831L63.0216 13.8992H63.0216L62.5297 14.8831ZM57.3276 17.1695V16.0695C56.7201 16.0695 56.2276 16.562 56.2276 17.1695H57.3276ZM57.3276 20.8613H56.2276C56.2276 21.4688 56.7201 21.9613 57.3276 21.9613V20.8613ZM63.8629 19.0154C63.8629 19.6926 63.7095 20.2923 63.4113 20.8353L65.3398 21.8941C65.8248 21.0107 66.0629 20.0442 66.0629 19.0154H63.8629ZM63.4158 20.8272C63.1415 21.3171 62.7068 21.7442 62.0531 22.0936L63.0901 24.0339C64.0586 23.5163 64.8266 22.8107 65.3353 21.9022L63.4158 20.8272ZM62.0531 22.0936C61.4431 22.4197 60.6266 22.614 59.5511 22.614V24.814C60.8808 24.814 62.078 24.5749 63.0901 24.0339L62.0531 22.0936ZM59.5511 22.614H57.3276V24.814H59.5511V22.614ZM56.2276 23.714V29H58.4276V23.714H56.2276ZM57.3276 27.9H53.7407V30.1H57.3276V27.9ZM54.8407 29V14.2748H52.6407V29H54.8407ZM53.7407 15.3748H59.5511V13.1748H53.7407V15.3748ZM59.5511 15.3748C60.6037 15.3748 61.4177 15.557 62.0377 15.867L63.0216 13.8992C62.0195 13.3982 60.8478 13.1748 59.5511 13.1748V15.3748ZM62.0377 15.867C62.6752 16.1857 63.1118 16.6009 63.3984 17.1049L65.3108 16.0175C64.7863 15.095 64.0063 14.3916 63.0216 13.8992L62.0377 15.867ZM63.3984 17.1049C63.6984 17.6325 63.8629 18.2588 63.8629 19.0154H66.0629C66.0629 17.9261 65.8219 16.9163 65.3108 16.0175L63.3984 17.1049ZM59.2784 21.9613C60.1143 21.9613 60.9511 21.7668 61.5707 21.173L60.0485 19.5846C59.9969 19.6341 59.8129 19.7613 59.2784 19.7613V21.9613ZM61.5707 21.173C62.1766 20.5924 62.4131 19.8189 62.4131 19.0154H60.2131C60.2131 19.3866 60.1139 19.522 60.0485 19.5846L61.5707 21.173ZM62.4131 19.0154C62.4131 18.2119 62.1766 17.4384 61.5707 16.8578L60.0485 18.4461C60.1139 18.5087 60.2131 18.6442 60.2131 19.0154H62.4131ZM61.5707 16.8578C60.9511 16.264 60.1143 16.0695 59.2784 16.0695V18.2695C59.8129 18.2695 59.9969 18.3967 60.0485 18.4461L61.5707 16.8578ZM59.2784 16.0695H57.3276V18.2695H59.2784V16.0695ZM56.2276 17.1695V20.8613H58.4276V17.1695H56.2276ZM57.3276 21.9613H59.2784V19.7613H57.3276V21.9613ZM71.6757 19.2461H70.5757C70.5757 19.7329 70.8957 20.1618 71.3623 20.3005C71.8289 20.4392 72.3312 20.2548 72.5971 19.847L71.6757 19.2461ZM73.2489 17.7358L73.7992 18.6883C73.8045 18.6853 73.8097 18.6822 73.8149 18.6791L73.2489 17.7358ZM75.3466 17.1695H76.4466C76.4466 16.562 75.9541 16.0695 75.3466 16.0695V17.1695ZM75.3466 20.9662V22.0662C75.9541 22.0662 76.4466 21.5737 76.4466 20.9662H75.3466ZM72.347 21.5535L73.0563 22.3942C73.0614 22.39 73.0664 22.3857 73.0713 22.3813L72.347 21.5535ZM71.6757 29V30.1C72.2833 30.1 72.7757 29.6075 72.7757 29H71.6757ZM68.0888 29H66.9888C66.9888 29.6075 67.4813 30.1 68.0888 30.1V29ZM68.0888 17.2953V16.1953C67.4813 16.1953 66.9888 16.6878 66.9888 17.2953H68.0888ZM71.6757 17.2953H72.7757C72.7757 16.6878 72.2833 16.1953 71.6757 16.1953V17.2953ZM72.5971 19.847C72.9278 19.34 73.328 18.9606 73.7992 18.6883L72.6986 16.7834C71.9113 17.2383 71.2628 17.8657 70.7544 18.6452L72.5971 19.847ZM73.8149 18.6791C74.2648 18.4091 74.7668 18.2695 75.3466 18.2695V16.0695C74.3881 16.0695 73.4916 16.3074 72.683 16.7926L73.8149 18.6791ZM74.2466 17.1695V20.9662H76.4466V17.1695H74.2466ZM75.3466 19.8662H74.3607V22.0662H75.3466V19.8662ZM74.3607 19.8662C73.3295 19.8662 72.3507 20.0886 71.6226 20.7257L73.0713 22.3813C73.2382 22.2353 73.6019 22.0662 74.3607 22.0662V19.8662ZM71.6376 20.7128C70.8198 21.4028 70.5757 22.4832 70.5757 23.5672H72.7757C72.7757 22.7214 72.9792 22.4593 73.0563 22.3942L71.6376 20.7128ZM70.5757 23.5672V29H72.7757V23.5672H70.5757ZM71.6757 27.9H68.0888V30.1H71.6757V27.9ZM69.1888 29V17.2953H66.9888V29H69.1888ZM68.0888 18.3953H71.6757V16.1953H68.0888V18.3953ZM70.5757 17.2953V19.2461H72.7757V17.2953H70.5757ZM80.543 28.4336L80.0215 29.4022L80.0277 29.4055L80.543 28.4336ZM78.3825 26.336L77.4265 26.8802L77.4329 26.8912L78.3825 26.336ZM78.4035 19.9803L79.3531 20.5355L79.3568 20.5291L78.4035 19.9803ZM80.585 17.8617L81.1004 18.8335L80.585 17.8617ZM86.7939 17.8617L86.2786 18.8335L86.7939 17.8617ZM88.9754 19.9803L88.0221 20.5292L88.0258 20.5355L88.9754 19.9803ZM88.9545 26.336L88.0074 25.7764L88.0048 25.7809L88.9545 26.336ZM86.752 28.4336L86.2426 27.4586L86.2366 27.4618L86.752 28.4336ZM85.3885 25.3082L84.5998 24.5414C84.5961 24.5452 84.5925 24.5491 84.5888 24.5529L85.3885 25.3082ZM85.4095 20.9871L84.5986 21.7304C84.6023 21.7345 84.606 21.7385 84.6098 21.7424L85.4095 20.9871ZM81.9484 20.9871L82.7488 21.7418C82.7523 21.738 82.7558 21.7342 82.7593 21.7304L81.9484 20.9871ZM81.9275 25.3082L81.1053 26.039C81.109 26.0432 81.1128 26.0474 81.1166 26.0515L81.9275 25.3082ZM83.6475 28.0678C82.6626 28.0678 81.8075 27.8591 81.0584 27.4618L80.0277 29.4055C81.1245 29.9871 82.339 30.2678 83.6475 30.2678V28.0678ZM81.0646 27.4651C80.3373 27.0735 79.7637 26.519 79.3321 25.7809L77.4329 26.8912C78.0642 27.971 78.9309 28.8149 80.0215 29.4022L81.0646 27.4651ZM79.3385 25.7919C78.9299 25.0741 78.7064 24.2049 78.7064 23.1477H76.5064C76.5064 24.5237 76.8003 25.7801 77.4265 26.8802L79.3385 25.7919ZM78.7064 23.1477C78.7064 22.1119 78.9335 21.2532 79.3531 20.5355L77.4539 19.4251C76.8107 20.5253 76.5064 21.7782 76.5064 23.1477H78.7064ZM79.3568 20.5291C79.787 19.7819 80.364 19.224 81.1004 18.8335L80.0696 16.8899C78.9601 17.4783 78.0828 18.3328 77.4502 19.4314L79.3568 20.5291ZM81.1004 18.8335C81.8495 18.4363 82.7045 18.2275 83.6895 18.2275V16.0275C82.381 16.0275 81.1664 16.3083 80.0696 16.8899L81.1004 18.8335ZM83.6895 18.2275C84.6744 18.2275 85.5295 18.4363 86.2786 18.8335L87.3093 16.8899C86.2125 16.3083 84.9979 16.0275 83.6895 16.0275V18.2275ZM86.2786 18.8335C87.0149 19.224 87.5919 19.7819 88.0221 20.5291L89.9287 19.4314C89.2962 18.3328 88.4188 17.4783 87.3093 16.8899L86.2786 18.8335ZM88.0258 20.5355C88.4454 21.2532 88.6725 22.1119 88.6725 23.1477H90.8725C90.8725 21.7782 90.5683 20.5253 89.9251 19.4251L88.0258 20.5355ZM88.6725 23.1477C88.6725 24.178 88.4409 25.0429 88.0074 25.7764L89.9015 26.8956C90.5588 25.7833 90.8725 24.5226 90.8725 23.1477H88.6725ZM88.0048 25.7809C87.5783 26.5105 86.997 27.0646 86.2426 27.4587L87.2613 29.4086C88.3808 28.8238 89.2679 27.9795 89.9041 26.8912L88.0048 25.7809ZM86.2366 27.4618C85.4875 27.8591 84.6324 28.0678 83.6475 28.0678V30.2678C84.956 30.2678 86.1705 29.9871 87.2673 29.4055L86.2366 27.4618ZM83.6475 27.1633C84.639 27.1633 85.5075 26.7843 86.1882 26.0635L84.5888 24.5529C84.3187 24.839 84.0265 24.9633 83.6475 24.9633V27.1633ZM86.1772 26.075C86.9258 25.3051 87.2227 24.2725 87.2227 23.1477H85.0227C85.0227 23.8967 84.8302 24.3045 84.5998 24.5414L86.1772 26.075ZM87.2227 23.1477C87.2227 22.0309 86.9372 21.0027 86.2092 20.2319L84.6098 21.7424C84.8327 21.9785 85.0227 22.3906 85.0227 23.1477H87.2227ZM86.2204 20.2438C85.5497 19.5123 84.6818 19.132 83.6895 19.132V21.332C84.0675 21.332 84.3463 21.4552 84.5986 21.7304L86.2204 20.2438ZM83.6895 19.132C82.6903 19.132 81.813 19.507 81.1376 20.2438L82.7593 21.7304C83.0069 21.4604 83.2902 21.332 83.6895 21.332V19.132ZM81.1481 20.2325C80.427 20.9974 80.1562 22.0325 80.1562 23.1477H82.3562C82.3562 22.361 82.547 21.9558 82.7488 21.7418L81.1481 20.2325ZM80.1562 23.1477C80.1562 24.2487 80.4194 25.2674 81.1053 26.039L82.7496 24.5774C82.5405 24.3422 82.3562 23.9205 82.3562 23.1477H80.1562ZM81.1166 26.0515C81.7872 26.7831 82.6551 27.1633 83.6475 27.1633V24.9633C83.2694 24.9633 82.9907 24.8402 82.7383 24.5649L81.1166 26.0515Z" fill="white" mask="url(#path-4-outside-1_820_10783)"/>
<path d="M96.1324 21.6164C96.1324 20.1621 96.447 18.8686 97.0763 17.7358C97.7056 16.5892 98.5796 15.7012 99.6983 15.0719C100.831 14.4286 102.111 14.107 103.537 14.107C105.285 14.107 106.781 14.5685 108.026 15.4914C109.27 16.4144 110.102 17.6729 110.522 19.2671H106.578C106.285 18.6518 105.865 18.1833 105.32 17.8617C104.789 17.5401 104.18 17.3793 103.495 17.3793C102.39 17.3793 101.495 17.7638 100.81 18.5329C100.125 19.3021 99.7822 20.3299 99.7822 21.6164C99.7822 22.903 100.125 23.9308 100.81 24.6999C101.495 25.469 102.39 25.8536 103.495 25.8536C104.18 25.8536 104.789 25.6928 105.32 25.3711C105.865 25.0495 106.285 24.581 106.578 23.9657H110.522C110.102 25.5599 109.27 26.8185 108.026 27.7414C106.781 28.6504 105.285 29.1049 103.537 29.1049C102.111 29.1049 100.831 28.7902 99.6983 28.161C98.5796 27.5177 97.7056 26.6297 97.0763 25.497C96.447 24.3643 96.1324 23.0708 96.1324 21.6164ZM119.305 29.1678C118.158 29.1678 117.124 28.9231 116.201 28.4336C115.292 27.9442 114.571 27.245 114.04 26.336C113.523 25.4271 113.264 24.3643 113.264 23.1477C113.264 21.945 113.53 20.8893 114.061 19.9803C114.592 19.0573 115.32 18.3511 116.243 17.8617C117.166 17.3723 118.2 17.1275 119.347 17.1275C120.494 17.1275 121.529 17.3723 122.451 17.8617C123.374 18.3511 124.102 19.0573 124.633 19.9803C125.164 20.8893 125.43 21.945 125.43 23.1477C125.43 24.3503 125.157 25.4131 124.612 26.336C124.081 27.245 123.346 27.9442 122.41 28.4336C121.487 28.9231 120.452 29.1678 119.305 29.1678ZM119.305 26.0633C119.99 26.0633 120.571 25.8116 121.046 25.3082C121.536 24.8048 121.78 24.0846 121.78 23.1477C121.78 22.2107 121.543 21.4906 121.067 20.9871C120.606 20.4837 120.032 20.232 119.347 20.232C118.648 20.232 118.067 20.4837 117.606 20.9871C117.145 21.4766 116.914 22.1968 116.914 23.1477C116.914 24.0846 117.138 24.8048 117.585 25.3082C118.046 25.8116 118.62 26.0633 119.305 26.0633ZM127.878 23.1267C127.878 21.9241 128.102 20.8683 128.55 19.9593C129.011 19.0503 129.633 18.3511 130.416 17.8617C131.2 17.3723 132.074 17.1275 133.038 17.1275C133.808 17.1275 134.507 17.2884 135.136 17.61C135.779 17.9316 136.283 18.3651 136.646 18.9105V13.4777H140.233V29H136.646V27.3219C136.311 27.8813 135.828 28.3288 135.199 28.6644C134.584 29 133.864 29.1678 133.038 29.1678C132.074 29.1678 131.2 28.9231 130.416 28.4336C129.633 27.9302 129.011 27.224 128.55 26.3151C128.102 25.3921 127.878 24.3293 127.878 23.1267ZM136.646 23.1477C136.646 22.2527 136.395 21.5465 135.891 21.0291C135.402 20.5117 134.8 20.253 134.087 20.253C133.374 20.253 132.766 20.5117 132.262 21.0291C131.773 21.5325 131.528 22.2317 131.528 23.1267C131.528 24.0217 131.773 24.7349 132.262 25.2663C132.766 25.7837 133.374 26.0424 134.087 26.0424C134.8 26.0424 135.402 25.7837 135.891 25.2663C136.395 24.7488 136.646 24.0427 136.646 23.1477ZM145.891 16.0787C145.261 16.0787 144.744 15.8969 144.339 15.5334C143.947 15.1558 143.751 14.6943 143.751 14.1489C143.751 13.5896 143.947 13.1281 144.339 12.7645C144.744 12.3869 145.261 12.1982 145.891 12.1982C146.506 12.1982 147.009 12.3869 147.401 12.7645C147.807 13.1281 148.009 13.5896 148.009 14.1489C148.009 14.6943 147.807 15.1558 147.401 15.5334C147.009 15.8969 146.506 16.0787 145.891 16.0787ZM147.674 17.2953V29H144.087V17.2953H147.674ZM158.664 17.1695C160.034 17.1695 161.125 17.617 161.936 18.512C162.761 19.393 163.173 20.6096 163.173 22.1618V29H159.607V22.6442C159.607 21.8611 159.405 21.2528 158.999 20.8193C158.594 20.3858 158.048 20.1691 157.363 20.1691C156.678 20.1691 156.132 20.3858 155.727 20.8193C155.321 21.2528 155.119 21.8611 155.119 22.6442V29H151.532V17.2953H155.119V18.8476C155.482 18.3302 155.972 17.9246 156.587 17.631C157.202 17.3233 157.894 17.1695 158.664 17.1695ZM171.371 17.1275C172.197 17.1275 172.917 17.2953 173.532 17.631C174.161 17.9666 174.644 18.4071 174.979 18.9525V17.2953H178.566V28.979C178.566 30.0558 178.349 31.0277 177.916 31.8947C177.496 32.7757 176.846 33.4749 175.965 33.9923C175.098 34.5097 174.014 34.7684 172.714 34.7684C170.98 34.7684 169.575 34.3559 168.498 33.5308C167.421 32.7198 166.806 31.615 166.652 30.2166H170.197C170.309 30.6641 170.574 31.0137 170.994 31.2654C171.413 31.5311 171.931 31.664 172.546 31.664C173.287 31.664 173.875 31.4472 174.308 31.0137C174.756 30.5942 174.979 29.916 174.979 28.979V27.3219C174.63 27.8673 174.147 28.3148 173.532 28.6644C172.917 29 172.197 29.1678 171.371 29.1678C170.407 29.1678 169.533 28.9231 168.749 28.4336C167.966 27.9302 167.344 27.224 166.883 26.3151C166.435 25.3921 166.211 24.3293 166.211 23.1267C166.211 21.9241 166.435 20.8683 166.883 19.9593C167.344 19.0503 167.966 18.3511 168.749 17.8617C169.533 17.3723 170.407 17.1275 171.371 17.1275ZM174.979 23.1477C174.979 22.2527 174.728 21.5465 174.224 21.0291C173.735 20.5117 173.133 20.253 172.42 20.253C171.707 20.253 171.099 20.5117 170.595 21.0291C170.106 21.5325 169.861 22.2317 169.861 23.1267C169.861 24.0217 170.106 24.7349 170.595 25.2663C171.099 25.7837 171.707 26.0424 172.42 26.0424C173.133 26.0424 173.735 25.7837 174.224 25.2663C174.728 24.7488 174.979 24.0427 174.979 23.1477Z" fill="white"/>
<defs>
<clipPath id="clip0_820_10783">
<rect width="41.9522" height="41.9522" fill="white"/>
</clipPath>
</defs>
</svg>
