<svg width="40" height="40" viewBox="0 0 40 40" fill="none" xmlns="http://www.w3.org/2000/svg">
<circle cx="20" cy="20" r="20" fill="#BF83FF"/>
<path d="M23.5 26.5C23.091 26.5 22.7387 26.3522 22.4432 26.0567C22.1477 25.7612 22 25.4089 22 25V15C22 14.591 22.1477 14.2388 22.4432 13.9433C22.7387 13.6478 23.091 13.5 23.5 13.5H24.25C24.659 13.5 25.0112 13.6478 25.3067 13.9433C25.6022 14.2388 25.75 14.591 25.75 15V25C25.75 25.4089 25.6022 25.7612 25.3067 26.0567C25.0112 26.3522 24.659 26.5 24.25 26.5H23.5ZM15.7499 26.5C15.341 26.5 14.9887 26.3522 14.6932 26.0567C14.3977 25.7612 14.25 25.4089 14.25 25V15C14.25 14.591 14.3977 14.2388 14.6932 13.9433C14.9887 13.6478 15.341 13.5 15.7499 13.5H16.5C16.909 13.5 17.2612 13.6478 17.5567 13.9433C17.8522 14.2388 18 14.591 18 15V25C18 25.4089 17.8522 25.7612 17.5567 26.0567C17.2612 26.3522 16.909 26.5 16.5 26.5H15.7499Z" fill="white"/>
</svg>
