<svg width="1600" height="832" viewBox="0 0 1600 832" fill="none" xmlns="http://www.w3.org/2000/svg">
<g clip-path="url(#clip0_1397_22132)">
<g opacity="0.37" filter="url(#filter0_f_1397_22132)">
<rect x="1020" y="192" width="464" height="488" rx="12" fill="#2326A0"/>
</g>
<mask id="mask0_1397_22132" style="mask-type:luminance" maskUnits="userSpaceOnUse" x="0" y="142" width="1759" height="698">
<rect y="142" width="1758.74" height="698" fill="white"/>
</mask>
<g mask="url(#mask0_1397_22132)">
<g opacity="0.08">
<mask id="mask1_1397_22132" style="mask-type:luminance" maskUnits="userSpaceOnUse" x="66" y="-567" width="2006" height="1889">
<path fill-rule="evenodd" clip-rule="evenodd" d="M66.127 411.523L1407.65 -566.802L2071.24 343.134L729.71 1321.46L66.127 411.523Z" fill="white"/>
</mask>
<g mask="url(#mask1_1397_22132)">
<path fill-rule="evenodd" clip-rule="evenodd" d="M1681.16 -186.627C1676.84 -193.423 1667.96 -196.278 1657.41 -194.265L642.155 -0.843119C633.972 0.71312 625.795 4.99315 619.131 11.2022C612.475 17.411 608.124 24.8081 606.897 32.0276L453.928 927.727C453.051 932.864 453.839 937.554 456.207 941.282C460.524 948.077 469.403 950.93 479.956 948.924L1495.21 755.502C1503.4 753.941 1511.57 749.667 1518.23 743.454C1524.89 737.244 1529.24 729.85 1530.47 722.628L1683.44 -173.068C1684.32 -178.211 1683.53 -182.899 1681.16 -186.627M453.739 942.974C451.166 938.917 450.312 933.821 451.265 928.234L604.227 32.5388C605.567 24.6891 610.293 16.6487 617.533 9.89729C624.774 3.14801 633.66 -1.50084 642.558 -3.197L1657.81 -196.619C1669.29 -198.803 1678.93 -195.7 1683.63 -188.315C1686.2 -184.259 1687.06 -179.164 1686.1 -173.574L1533.13 722.121C1531.8 729.97 1527.07 738.006 1519.83 744.756C1512.6 751.508 1503.71 756.155 1494.8 757.853L479.555 951.271C468.084 953.459 458.43 950.358 453.739 942.974" fill="#2B437B"/>
</g>
<path fill-rule="evenodd" clip-rule="evenodd" d="M1642.33 -166.215C1638.19 -172.736 1629.68 -175.541 1619.58 -173.726L631.906 3.70688C623.954 5.13172 615.968 9.22085 609.422 15.2162C602.875 21.2139 598.555 28.3979 597.251 35.4494L435.578 910.882C434.632 916.021 435.377 920.702 437.738 924.418C441.879 930.937 450.382 933.746 460.484 931.924L1448.16 754.499C1464.58 751.541 1480.13 737.307 1482.81 722.757L1644.48 -152.678C1645.44 -157.819 1644.69 -162.5 1642.33 -166.215M435.272 926.105C432.699 922.06 431.887 916.959 432.921 911.361L594.596 35.9283C596.013 28.2481 600.722 20.4218 607.85 13.8905C614.98 7.35992 623.678 2.90633 632.343 1.34907L1620.02 -176.08C1631.03 -178.06 1640.28 -175.003 1644.79 -167.905C1647.36 -163.852 1648.18 -158.754 1647.15 -153.155L1485.47 722.278C1482.55 738.13 1465.61 753.645 1447.73 756.858L460.048 934.287C449.047 936.264 439.782 933.208 435.272 926.105" fill="#2B437B"/>
<path fill-rule="evenodd" clip-rule="evenodd" d="M1603.49 -145.818C1599.53 -152.056 1591.4 -154.814 1581.75 -153.195L621.653 8.24708C605.711 10.9282 590.439 24.6618 587.607 38.8634L417.229 894.031C416.202 899.167 416.906 903.845 419.262 907.553C423.226 913.794 431.355 916.55 441.006 914.925L1401.1 753.492C1408.83 752.189 1416.62 748.29 1423.05 742.507C1429.49 736.724 1433.78 729.747 1435.15 722.87L1605.53 -132.3C1606.56 -137.435 1605.85 -142.111 1603.49 -145.818M416.796 909.239C414.225 905.191 413.455 900.089 414.575 894.483L584.955 39.3115C588.046 23.8062 604.72 8.81279 622.124 5.88633L1582.22 -155.555C1592.76 -157.326 1601.64 -154.314 1605.96 -147.501C1608.54 -143.455 1609.3 -138.352 1608.19 -132.743L1437.81 722.427C1436.31 729.938 1431.62 737.549 1424.59 743.863C1417.58 750.177 1409.07 754.435 1400.64 755.853L440.538 917.292C430.002 919.062 421.125 916.055 416.796 909.239" fill="#2B437B"/>
<path fill-rule="evenodd" clip-rule="evenodd" d="M1564.68 -125.416C1560.88 -131.381 1553.13 -134.084 1543.92 -132.651L611.405 12.7994C603.909 13.9697 596.307 17.6792 589.99 23.2497C583.678 28.8155 579.406 35.5791 577.97 42.2864L398.877 877.198C397.778 882.336 398.434 887.004 400.784 890.702C404.573 896.668 412.329 899.373 421.534 897.938L1354.06 752.484C1369.52 750.07 1384.52 736.846 1387.49 723L1566.59 -111.911C1567.69 -117.047 1567.03 -121.716 1564.68 -125.416M398.319 892.384C395.745 888.339 395.024 883.226 396.232 877.607L575.321 42.6991C576.897 35.3562 581.571 27.9573 588.479 21.8626C595.389 15.7692 603.71 11.7099 611.912 10.4281L1544.43 -135.02C1554.5 -136.592 1562.99 -133.632 1567.14 -127.103C1569.71 -123.053 1570.44 -117.946 1569.23 -112.323L1390.14 722.585C1386.88 737.738 1370.47 752.216 1353.55 754.854L421.028 900.302C410.953 901.873 402.467 898.918 398.319 892.384" fill="#2B437B"/>
<path fill-rule="evenodd" clip-rule="evenodd" d="M1525.86 -105.015C1522.24 -110.712 1514.85 -113.364 1506.09 -112.111L601.152 17.3458C593.892 18.3861 586.478 21.907 580.28 27.2637C574.076 32.6228 569.835 39.1696 568.328 45.7066L380.526 860.355C379.34 865.489 379.954 870.15 382.299 873.842C385.917 879.539 393.309 882.19 402.067 880.938L1307.01 751.482C1314.27 750.438 1321.68 746.919 1327.88 741.561C1334.08 736.205 1338.32 729.654 1339.83 723.116L1527.63 -91.5281C1528.82 -96.6622 1528.2 -101.325 1525.86 -105.015M379.833 875.53C377.262 871.477 376.589 866.366 377.885 860.729L565.69 46.0851C567.343 38.9147 572.001 31.7276 578.8 25.8544C585.602 19.9767 593.733 16.1134 601.703 14.9719L1506.64 -114.483C1516.25 -115.86 1524.36 -112.951 1528.32 -106.703C1530.9 -102.653 1531.57 -97.5345 1530.28 -91.9055L1342.47 722.741C1340.82 729.916 1336.16 737.103 1329.36 742.974C1322.56 748.854 1314.43 752.719 1306.46 753.855L401.52 883.317C391.911 884.69 383.804 881.779 379.833 875.53" fill="#2B437B"/>
<path fill-rule="evenodd" clip-rule="evenodd" d="M1487.05 -84.6299C1483.6 -90.0563 1476.58 -92.6531 1468.26 -91.5773L590.896 21.8898C576.384 23.7669 561.932 35.9833 558.683 49.122L362.17 843.513C360.902 848.637 361.465 853.302 363.805 856.987C367.252 862.417 374.276 865.009 382.593 863.935L1259.95 750.466C1266.99 749.559 1274.21 746.224 1280.29 741.084C1286.38 735.935 1290.6 729.598 1292.17 723.235L1488.68 -71.1522C1489.95 -76.2846 1489.39 -80.948 1487.05 -84.6299M361.342 858.677C358.765 854.625 358.146 849.498 359.543 843.852L556.052 49.466C559.626 35.0147 575.521 21.5772 591.484 19.5107L1468.85 -93.9571C1477.99 -95.1416 1485.72 -92.2833 1489.51 -86.3166C1492.09 -82.265 1492.71 -77.137 1491.32 -71.489L1294.8 722.895C1293.07 729.896 1288.43 736.871 1281.74 742.526C1275.04 748.186 1267.1 751.854 1259.37 752.849L382.006 866.318C372.857 867.503 365.132 864.646 361.342 858.677" fill="#2B437B"/>
<path fill-rule="evenodd" clip-rule="evenodd" d="M1448.24 -64.2365C1444.92 -69.4728 1438.42 -71.9496 1430.43 -71.0335L580.645 26.4415C573.844 27.2258 566.815 30.367 560.845 35.3003C554.874 40.2321 550.685 46.3583 549.043 52.5519L343.82 826.677C342.459 831.814 342.972 836.469 345.309 840.145C348.636 845.382 355.136 847.858 363.128 846.942L1212.91 749.467C1226.95 747.856 1241.13 736.146 1244.51 723.358L1449.73 -50.7636C1451.1 -55.8982 1450.58 -60.5582 1448.24 -64.2365M342.846 841.831C340.268 837.78 339.7 832.642 341.199 826.978L546.422 52.8549C548.234 46.021 552.855 39.2652 559.441 33.8268C566.024 28.387 573.781 24.9186 581.278 24.0581L1431.06 -73.4191C1439.88 -74.4299 1447.04 -71.699 1450.71 -65.9234C1453.29 -61.8644 1453.86 -56.7287 1452.35 -51.0645L1247.13 723.059C1243.39 737.163 1227.76 750.077 1212.28 751.857L362.498 849.334C353.677 850.345 346.514 847.612 342.846 841.831" fill="#2B437B"/>
<path fill-rule="evenodd" clip-rule="evenodd" d="M1409.45 -43.8589C1406.29 -48.83 1400.15 -51.249 1392.59 -50.503L570.391 30.9867C563.822 31.6343 556.98 34.5907 551.123 39.3141C545.269 44.0338 541.106 49.9471 539.394 55.9725L325.468 809.83C324.009 814.971 324.471 819.626 326.805 823.301C329.962 828.271 336.107 830.691 343.66 829.945L1165.86 748.459C1172.43 747.804 1179.28 744.847 1185.13 740.127C1190.98 735.412 1195.15 729.498 1196.86 723.473L1410.78 -30.3877C1412.25 -35.5263 1411.79 -40.1872 1409.45 -43.8589M324.341 824.992C321.758 820.927 321.25 815.773 322.862 810.092L536.788 56.2326C538.679 49.5689 543.286 43.0256 549.761 37.8066C556.238 32.5846 563.806 29.3136 571.07 28.5957L1393.27 -52.8902C1401.63 -53.7198 1408.42 -51.0383 1411.92 -45.5467C1414.49 -41.4818 1415.01 -36.331 1413.4 -30.6449L1199.46 723.214C1197.58 729.877 1192.97 736.42 1186.5 741.641C1180.02 746.857 1172.45 750.132 1165.19 750.847L342.982 832.336C334.624 833.164 327.834 830.486 324.341 824.992" fill="#2B437B"/>
<path fill-rule="evenodd" clip-rule="evenodd" d="M1370.66 -23.4792C1367.68 -28.1845 1361.88 -30.5458 1354.76 -29.9594L560.132 35.537C553.796 36.0568 547.146 38.8282 541.408 43.3364C535.67 47.8424 531.529 53.5489 529.755 59.3999L307.117 792.999C305.576 798.067 305.996 802.853 308.294 806.471C311.285 811.173 317.082 813.536 324.197 812.949L1118.82 747.456C1125.16 746.934 1131.81 744.165 1137.55 739.655C1143.29 735.151 1147.43 729.446 1149.21 723.594L1371.84 -10.0049C1373.38 -15.075 1372.96 -19.8634 1370.66 -23.4792M305.829 808.161C303.281 804.144 302.81 798.836 304.523 793.214L527.16 59.6147C529.129 53.1256 533.721 46.7934 540.088 41.7915C546.455 36.7903 553.833 33.7199 560.864 33.1401L1355.49 -32.354C1363.38 -33.0059 1369.81 -30.3851 1373.13 -25.1664C1375.68 -21.1502 1376.14 -15.8444 1374.44 -10.2188L1151.8 723.381C1149.83 729.868 1145.24 736.2 1138.87 741.2C1132.51 746.199 1125.13 749.275 1118.1 749.85L323.467 815.344C315.573 815.999 309.146 813.376 305.829 808.161" fill="#2B437B"/>
<path fill-rule="evenodd" clip-rule="evenodd" d="M1331.88 -3.11615C1329.06 -7.55849 1323.61 -9.85919 1316.92 -9.42793L549.874 40.0787C543.766 40.4717 537.302 43.056 531.684 47.3505C526.063 51.6465 521.948 57.1423 520.105 62.8258L288.759 776.159C287.113 781.233 287.473 786.02 289.772 789.64C292.596 794.083 298.047 796.383 304.727 795.955L1071.78 746.445C1084.38 745.635 1097.74 735.431 1101.55 723.703L1332.9 10.365C1334.54 5.2908 1334.18 0.504997 1331.88 -3.11615M287.307 791.332C284.751 787.303 284.35 781.974 286.179 776.33L517.527 62.9944C519.577 56.6717 524.15 50.5581 530.407 45.7777C536.665 40.9966 543.854 38.1207 550.654 37.6828L1317.7 -11.8224C1325.14 -12.3044 1331.21 -9.74353 1334.35 -4.80013C1336.9 -0.772314 1337.31 4.55335 1335.48 10.203L1104.13 723.542C1099.89 736.592 1085.03 747.947 1071 748.848L303.951 798.355C296.516 798.835 290.448 796.272 287.307 791.332" fill="#2B437B"/>
<path fill-rule="evenodd" clip-rule="evenodd" d="M1293.11 17.2496C1290.45 13.068 1285.34 10.8273 1279.08 11.1108L539.614 44.6226C527.476 45.1746 514.395 54.8792 510.456 66.2546L270.399 759.328C268.637 764.404 268.936 769.2 271.235 772.816C273.894 777.005 279.007 779.24 285.263 778.956L1024.73 745.447C1036.87 744.891 1049.95 735.187 1053.89 723.816L1293.94 30.744C1295.7 25.6653 1295.41 20.8707 1293.11 17.2496M268.771 774.502C266.203 770.465 265.873 765.113 267.836 759.442L507.895 66.3675C512.294 53.6685 526.894 42.8381 540.444 42.2249L1279.91 8.70937C1286.9 8.39294 1292.61 10.8905 1295.57 15.5639C1298.14 19.6032 1298.48 24.9556 1296.51 30.6284L1056.45 723.701C1052.05 736.399 1037.45 747.233 1023.9 747.847L284.433 781.355C277.448 781.674 271.74 779.176 268.771 774.502" fill="#2B437B"/>
<path fill-rule="evenodd" clip-rule="evenodd" d="M1254.35 37.6062C1251.85 33.6735 1247.08 31.5063 1241.25 31.6499L529.353 49.1713C517.689 49.4601 504.886 58.6603 500.809 69.682L252.042 742.491C250.163 747.578 250.392 752.378 252.693 756.007C255.192 759.935 259.971 762.102 265.802 761.961L977.69 744.447C989.358 744.155 1002.16 734.954 1006.23 723.926L1255 51.1192C1256.88 46.032 1256.65 41.2308 1254.35 37.6062M250.229 757.695C247.651 753.635 247.396 748.255 249.5 742.556L498.265 69.7464C502.833 57.3977 517.176 47.0925 530.241 46.7688L1242.14 29.2451C1248.67 29.0828 1254.02 31.5167 1256.82 35.9176C1259.4 39.9809 1259.65 45.3581 1257.55 51.0584L1008.78 723.868C1004.22 736.212 989.871 746.524 976.807 746.847L264.914 764.371C258.381 764.529 253.026 762.096 250.229 757.695" fill="#2B437B"/>
<path fill-rule="evenodd" clip-rule="evenodd" d="M1215.6 57.952C1213.23 54.2192 1208.9 52.1678 1203.4 52.1827L519.088 53.718C513.674 53.7271 507.78 55.7515 502.508 59.4132C497.231 63.0781 493.203 67.9438 491.162 73.1119L233.689 725.657C231.676 730.757 231.838 735.563 234.145 739.196C236.517 742.929 240.847 744.98 246.342 744.969L930.656 743.433C941.845 743.407 954.368 734.705 958.583 724.036L1216.06 71.4886C1218.07 66.3896 1217.91 61.5848 1215.6 57.952M231.678 740.884C229.083 736.799 228.903 731.401 231.162 725.672L488.641 73.12C490.934 67.3075 495.462 61.8404 501.397 57.7194C507.326 53.6008 513.946 51.3271 520.043 51.3104L1204.35 49.7797C1210.53 49.764 1215.4 52.0698 1218.07 56.2652C1220.66 60.3496 1220.85 65.7559 1218.58 71.4874L961.105 724.036C956.374 736.026 942.288 745.814 929.708 745.845L245.395 747.375C239.217 747.385 234.345 745.086 231.678 740.884" fill="#2B437B"/>
<path fill-rule="evenodd" clip-rule="evenodd" d="M1176.87 78.2957C1174.65 74.8089 1170.64 72.8338 1165.56 72.7213L508.827 58.264C498.109 58.0294 485.855 66.2306 481.509 76.548L215.325 708.837C213.174 713.944 213.263 718.76 215.577 722.401C217.79 725.883 221.806 727.865 226.884 727.976L883.619 742.434C894.337 742.67 906.587 734.472 910.937 724.147L1177.12 91.8634C1179.27 86.7539 1179.18 81.934 1176.87 78.2957M213.111 724.093C210.504 719.986 210.404 714.546 212.833 708.781L479.013 76.4942C483.916 64.8522 497.745 55.596 509.84 55.8602L1166.58 70.3182C1172.3 70.4442 1176.84 72.675 1179.33 76.6077C1181.94 80.7175 1182.04 86.1547 1179.62 91.9181L913.437 724.21C908.528 735.85 894.701 745.109 882.603 744.843L225.874 730.386C220.142 730.258 215.61 728.024 213.111 724.093" fill="#2B437B"/>
<path fill-rule="evenodd" clip-rule="evenodd" d="M1138.15 98.6247C1136.09 95.3878 1132.39 93.4812 1127.72 93.2544L498.564 62.8081C493.603 62.5657 488.09 64.221 483.049 67.4652C478.004 70.711 474.029 75.1567 471.862 79.9849L196.969 692.012C194.702 697.055 194.716 702.012 197.002 705.614C199.059 708.851 202.758 710.759 207.429 710.987L836.586 741.435C846.828 741.93 858.81 734.222 863.287 724.255L1138.18 112.232C1140.45 107.187 1140.44 102.226 1138.15 98.6247M194.535 707.304C191.942 703.221 191.93 697.604 194.496 691.893L469.39 79.8655C471.852 74.3938 476.348 69.3577 482.064 65.6821C487.779 62.0058 494.021 60.133 499.642 60.4048L1128.8 90.8549C1134.09 91.1101 1138.28 93.2713 1140.61 96.9358C1143.2 101.016 1143.22 106.635 1140.65 112.352L865.755 724.376C860.683 735.669 847.11 744.399 835.507 743.836L206.351 713.384C201.061 713.13 196.865 710.97 194.535 707.304" fill="#2B437B"/>
<path fill-rule="evenodd" clip-rule="evenodd" d="M1099.44 118.946C1097.54 115.95 1094.14 114.12 1089.88 113.789L488.297 67.3542C483.56 66.9895 478.238 68.4583 473.309 71.4949C468.382 74.5292 464.441 78.7656 462.21 83.4201L178.604 675.188C176.18 680.245 176.109 685.219 178.408 688.841C180.311 691.832 183.707 693.663 187.974 693.997L789.548 740.437C799.327 741.192 811.029 733.983 815.64 724.363L1099.24 132.604C1101.67 127.544 1101.74 122.564 1099.44 118.946M175.94 690.527C173.322 686.414 173.408 680.754 176.168 674.996L459.768 83.2345C462.309 77.9358 466.793 73.1174 472.398 69.6649C478.004 66.2124 484.058 64.5393 489.446 64.9552L1091.02 111.393C1095.87 111.768 1099.74 113.851 1101.91 117.259C1104.52 121.374 1104.44 127.033 1101.68 132.788L818.073 724.557C812.84 735.487 799.522 743.69 788.402 742.833L186.824 696.397C181.971 696.016 178.104 693.934 175.94 690.527" fill="#2B437B"/>
<path fill-rule="evenodd" clip-rule="evenodd" d="M1060.75 139.253C1059 136.493 1055.9 134.742 1052.03 134.318L478.026 71.8913C468.718 70.8807 457.291 77.5942 452.547 86.8622L160.243 658.358C157.644 663.434 157.48 668.433 159.791 672.069C161.546 674.827 164.645 676.576 168.519 677.004L742.523 739.432C751.827 740.444 763.255 733.728 767.993 724.464L1060.31 152.962C1062.9 147.887 1063.06 142.894 1060.75 139.253M157.327 673.762C154.685 669.604 154.876 663.895 157.838 658.097L450.148 86.6031C455.562 76.0178 468.619 68.347 479.251 69.503L1053.25 131.933C1057.67 132.415 1061.22 134.412 1063.22 137.567C1065.86 141.724 1065.67 147.432 1062.71 153.23L770.397 724.726C764.982 735.311 751.927 742.978 741.298 741.826L167.297 679.398C162.871 678.913 159.33 676.913 157.327 673.762" fill="#2B437B"/>
<path fill-rule="evenodd" clip-rule="evenodd" d="M1022.08 159.551C1020.45 156.988 1017.72 155.361 1014.18 154.851L467.757 76.432C458.919 75.1628 447.765 81.3854 442.891 90.304L141.871 641.542C139.093 646.632 138.833 651.651 141.162 655.317C142.793 657.88 145.526 659.503 149.067 660.011L695.488 738.437C704.329 739.709 715.48 733.485 720.354 724.563L1021.38 173.325C1024.16 168.238 1024.41 163.216 1022.08 159.551M138.698 657.004C136.027 652.802 136.324 647.04 139.515 641.201L440.531 89.9679C446.122 79.7364 458.917 72.5968 469.055 74.0531L1015.48 152.473C1019.54 153.057 1022.68 154.918 1024.55 157.864C1027.22 162.068 1026.92 167.828 1023.74 173.664L722.715 724.907C717.127 735.137 704.33 742.276 694.192 740.82L147.77 662.397C143.706 661.815 140.57 659.951 138.698 657.004" fill="#2B437B"/>
<path fill-rule="evenodd" clip-rule="evenodd" d="M983.436 179.832C981.952 177.495 979.498 175.955 976.329 175.382L457.484 80.9696C449.113 79.4493 438.233 85.1794 433.232 93.7486L123.501 624.722C120.569 629.754 120.197 634.935 122.514 638.578C123.998 640.912 126.455 642.448 129.623 643.023L648.467 737.441C656.836 738.961 667.713 733.23 672.714 724.659L982.447 193.683C985.379 188.655 985.748 183.478 983.436 179.832M120.048 640.263C117.379 636.062 117.807 630.095 121.189 624.3L430.918 93.3253C436.677 83.4515 449.216 76.8468 458.865 78.6009L977.707 173.013C981.357 173.676 984.189 175.45 985.899 178.142C988.568 182.34 988.142 188.309 984.756 194.105L675.027 725.079C669.267 734.951 656.73 741.559 647.084 739.805L128.237 645.397C124.592 644.727 121.758 642.956 120.048 640.263" fill="#2B437B"/>
<path fill-rule="evenodd" clip-rule="evenodd" d="M944.8 200.096C943.461 197.985 941.27 196.536 938.474 195.905L447.209 85.5003C439.299 83.7261 428.692 88.9691 423.566 97.1894L105.128 607.901C101.979 612.949 101.496 618.165 103.836 621.847C105.177 623.96 107.368 625.407 110.169 626.039L601.434 736.442C609.344 738.217 619.948 732.976 625.07 724.754L943.514 214.04C946.662 208.991 947.141 203.78 944.8 200.096M101.373 623.535C98.6643 619.271 99.2207 613.237 102.866 607.396L421.303 96.6841C427.241 87.164 439.519 81.0957 448.671 83.1546L939.935 193.555C943.18 194.284 945.711 195.962 947.27 198.41C949.978 202.674 949.419 208.707 945.777 214.551L627.336 725.266C621.401 734.78 609.122 740.852 599.97 738.794L108.703 628.391C105.462 627.662 102.926 625.98 101.373 623.535" fill="#2B437B"/>
<path fill-rule="evenodd" clip-rule="evenodd" d="M906.2 220.348C904.996 218.453 903.066 217.095 900.614 216.432L436.928 90.0373C429.482 88.0076 419.152 92.7617 413.894 100.641L86.7455 591.087C83.3683 596.153 82.7661 601.404 85.1366 605.135C86.3401 607.031 88.2702 608.388 90.7206 609.055L554.409 735.447C561.855 737.476 572.186 732.723 577.442 724.843L904.59 234.393C907.969 229.328 908.572 224.079 906.2 220.348M82.6734 606.825C79.9578 602.552 80.6754 596.294 84.548 590.49L411.696 100.04C417.807 90.8802 429.825 85.3477 438.485 87.7089L902.171 214.101C905.022 214.88 907.261 216.456 908.668 218.66C911.379 222.934 910.66 229.195 906.796 234.995L579.644 725.448C573.533 734.608 561.516 740.139 552.853 737.777L89.1711 611.383C86.3188 610.605 84.0726 609.03 82.6734 606.825" fill="#2B437B"/>
<mask id="mask2_1397_22132" style="mask-type:luminance" maskUnits="userSpaceOnUse" x="-52" y="-74" width="1038" height="977">
<path fill-rule="evenodd" clip-rule="evenodd" d="M-51.2361 432.225L642.28 -73.5313L985.281 396.807L291.764 902.563L-51.2361 432.225Z" fill="white"/>
</mask>
<g mask="url(#mask2_1397_22132)">
<path fill-rule="evenodd" clip-rule="evenodd" d="M867.63 240.58C866.558 238.896 864.875 237.644 862.758 236.957L426.651 94.5718C419.67 92.288 409.609 96.5589 404.228 104.091L68.368 574.281C64.7903 579.289 64.0436 584.715 66.4126 588.444C67.4836 590.13 69.1647 591.386 71.2805 592.076L507.388 734.46C514.374 736.738 524.43 732.471 529.81 724.937L865.673 254.75C869.246 249.743 869.998 244.313 867.63 240.58M63.9463 590.136C61.1774 585.777 62.0551 579.433 66.2311 573.588L402.091 103.397C408.378 94.5981 420.136 89.6042 428.299 92.2688L864.409 234.651C866.877 235.459 868.845 236.924 870.097 238.894C872.865 243.254 871.991 249.596 867.807 255.448L531.947 725.636C525.66 734.44 513.906 739.431 505.743 736.765L69.6309 594.382C67.1641 593.577 65.1978 592.107 63.9463 590.136" fill="#2B437B"/>
</g>
</g>
</g>
</g>
<defs>
<filter id="filter0_f_1397_22132" x="894.1" y="66.1" width="715.8" height="739.8" filterUnits="userSpaceOnUse" color-interpolation-filters="sRGB">
<feFlood flood-opacity="0" result="BackgroundImageFix"/>
<feBlend mode="normal" in="SourceGraphic" in2="BackgroundImageFix" result="shape"/>
<feGaussianBlur stdDeviation="62.95" result="effect1_foregroundBlur_1397_22132"/>
</filter>
<clipPath id="clip0_1397_22132">
<rect width="1600" height="832" fill="white"/>
</clipPath>
</defs>
</svg>
