<svg width="40" height="40" viewBox="0 0 40 40" fill="none" xmlns="http://www.w3.org/2000/svg">
<g clip-path="url(#clip0_820_33939)">
<mask id="mask0_820_33939" style="mask-type:luminance" maskUnits="userSpaceOnUse" x="0" y="0" width="40" height="40">
<path d="M40 0H0V40H40V0Z" fill="white"/>
</mask>
<g mask="url(#mask0_820_33939)">
<path d="M20.0012 18.2793C19.6012 18.3993 19.2012 18.6393 18.8812 18.9193C18.6012 19.1993 18.4013 19.5993 18.2812 19.9993C18.4013 20.3993 18.6413 20.7993 18.9213 21.1193C19.2413 21.3993 19.6012 21.6393 20.0012 21.7593C20.4012 21.6393 20.8012 21.3993 21.1212 21.1193C21.4012 20.8393 21.6413 20.4393 21.7613 20.0393C21.6413 19.6393 21.4012 19.2393 21.1212 18.9193C20.8012 18.5993 20.4412 18.3993 20.0012 18.2793Z" fill="white"/>
<path d="M20 0C8.96 0 0 8.96 0 20C0 31.04 8.96 40 20 40C31.04 40 40 31.04 40 20C40 8.96 31.04 0 20 0ZM29.6 25.64C29.52 26.68 29.08 27.6 28.36 28.32C26.8 29.88 24.36 30.04 22.96 28.6L22.28 27.96L23.56 26.68L24.2 27.32C24.52 27.6 24.92 27.8 25.36 27.76C26.64 27.72 27.68 26.72 27.8 25.44C27.84 24.96 27.68 24.48 27.36 24.12L24.44 21.2L23.04 22.6C22.96 22.68 22.88 22.72 22.8 22.8C22.72 22.88 22.68 22.92 22.6 23L21.2 24.4L22.92 26.12L21.64 27.4L20 25.68L17.08 28.6C16.36 29.32 15.4 29.68 14.36 29.56C13.32 29.48 12.4 29.04 11.68 28.32C10.12 26.76 9.96 24.32 11.4 22.92L12.04 22.28L13.32 23.56L12.68 24.2C12.4 24.52 12.2 24.92 12.24 25.36C12.28 26.64 13.28 27.68 14.56 27.8C15.04 27.84 15.52 27.68 15.88 27.36L18.8 24.44L17.4 23.04C17.32 22.96 17.28 22.88 17.2 22.8C17.12 22.72 17.08 22.68 17 22.6L15.6 21.2L13.88 22.92L12.6 21.64L14.32 19.92L11.4 17C10.68 16.28 10.32 15.32 10.44 14.28C10.52 13.24 10.96 12.32 11.68 11.6C13.24 10.04 15.68 9.88 17.08 11.32L17.72 11.96L16.44 13.24L15.8 12.6C15.48 12.32 15.08 12.12 14.64 12.16C13.36 12.2 12.32 13.2 12.2 14.48C12.16 14.96 12.32 15.44 12.64 15.8L15.56 18.72L16.96 17.32C17.04 17.24 17.12 17.2 17.2 17.12C17.28 17.04 17.32 17 17.4 16.92L18.8 15.52L17.08 13.8L18.36 12.52L20.08 14.24L23 11.32C23.72 10.6 24.68 10.24 25.72 10.36C26.76 10.44 27.68 10.88 28.4 11.6C29.96 13.16 30.12 15.6 28.68 17L28.04 17.68L26.76 16.4L27.4 15.76C27.68 15.44 27.88 15.04 27.84 14.6C27.8 13.32 26.8 12.28 25.52 12.16C25.04 12.12 24.56 12.28 24.2 12.6L21.28 15.52L22.68 16.92C22.76 17 22.8 17.08 22.88 17.16C22.96 17.24 23 17.28 23.08 17.36L24.48 18.76L26.2 17.04L27.48 18.32L25.68 20L28.6 22.92C29.32 23.64 29.68 24.64 29.6 25.64Z" fill="white"/>
</g>
</g>
<defs>
<clipPath id="clip0_820_33939">
<rect width="40" height="40" fill="white"/>
</clipPath>
</defs>
</svg>
