<svg width="40" height="40" viewBox="0 0 40 40" fill="none" xmlns="http://www.w3.org/2000/svg">
<g clip-path="url(#clip0_2733_25195)">
<path d="M30.2201 8.02836C27.9762 4.98064 24.3703 3 20.3131 3C18.2372 3 16.2803 3.518 14.5627 4.4325C10.727 6.47624 8.08818 10.495 8.00281 15.1306C8.00188 15.2069 8 15.286 8 15.3623C8 15.4235 8 15.4857 8.00188 15.5488C8.03283 17.6264 8.5816 19.5826 9.52249 21.2938V15.7277H12.2607C12.2551 15.6024 12.2523 15.4772 12.2523 15.3519C12.2523 15.2267 12.2551 15.1005 12.2607 14.9733C12.3376 13.344 12.9014 11.8352 13.8113 10.5929C15.2044 8.6848 17.4079 7.40487 19.8994 7.27773C22.7305 7.13363 25.2671 8.46536 26.8102 10.5731C27.3965 11.3727 28.4612 11.6506 29.3664 11.2503C30.1788 10.8934 30.6375 10.1032 30.6375 9.29227C30.6375 8.85621 30.5034 8.41356 30.2201 8.02836Z" fill="#EE2A7B"/>
<path d="M10.124 36.9998C8.95087 36.9998 7.99902 35.761 7.99902 34.2322V14.9771H12.249V34.2322C12.249 35.761 11.2972 36.9998 10.124 36.9998Z" fill="#EE2A7B"/>
<path d="M19.898 7.27843C17.4064 7.40463 15.2029 8.6855 13.8099 10.5936C13.7677 10.15 13.7461 9.69889 13.7461 9.24305C13.7461 7.5572 14.0341 5.93822 14.5622 4.43226C16.2798 3.51775 18.2366 2.99976 20.3126 2.99976C24.3697 2.99976 27.9747 4.98039 30.2195 8.02811C30.5028 8.41331 30.6361 8.85597 30.6361 9.29297C30.6361 10.1039 30.1773 10.8931 29.365 11.251C28.4597 11.6503 27.395 11.3734 26.8087 10.5738C25.2656 8.46606 22.7291 7.13433 19.898 7.27843Z" fill="#EE2A7B"/>
<path d="M30.3102 22.5726C30.0381 22.9522 29.7445 23.3157 29.4312 23.6614C27.1911 26.143 23.9585 27.7074 20.3713 27.7243C18.1396 27.7356 16.0365 27.1395 14.2185 26.0912C13.9418 25.9321 13.772 25.6345 13.772 25.3142V20.6758C13.772 20.4884 14.0046 20.4008 14.1247 20.5449C15.604 22.323 17.8273 23.456 20.3122 23.456C21.3703 23.456 22.3825 23.2498 23.3084 22.8759C24.6761 22.3249 25.859 21.4095 26.738 20.2463C26.7427 20.2407 26.7464 20.235 26.7511 20.2294C26.7783 20.1936 26.8037 20.1578 26.829 20.123C27.2173 19.6247 27.8205 19.3064 28.4987 19.3064C28.7605 19.3064 29.01 19.3535 29.2417 19.4401C29.2473 19.443 29.253 19.4448 29.2586 19.4477C29.3196 19.475 29.3805 19.5014 29.4415 19.5287C29.4518 19.5334 29.4612 19.5371 29.4725 19.5428C30.6375 20.0617 31.0559 21.5329 30.3102 22.5726Z" fill="#EE2A7B"/>
<path d="M30.3103 22.5726C30.0383 22.9522 29.7447 23.3157 29.4313 23.6614C29.013 23.7 28.5908 23.7179 28.1631 23.7179C26.4595 23.7179 24.8245 23.4221 23.3076 22.8759C24.6753 22.3249 25.8582 21.4095 26.7372 20.2463C26.7419 20.2407 26.7456 20.235 26.7503 20.2294C26.7775 20.1936 26.8029 20.1578 26.8282 20.123C27.2166 19.6247 27.8197 19.3064 28.498 19.3064C28.7597 19.3064 29.0092 19.3535 29.2409 19.4401C29.2465 19.443 29.2522 19.4448 29.2578 19.4477C29.3188 19.475 29.3797 19.5014 29.4407 19.5287C29.451 19.5334 29.4604 19.5371 29.4717 19.5428C30.6377 20.0617 31.0561 21.5329 30.3103 22.5726Z" fill="#EE2A7B"/>
<path d="M32.3221 15.3528C32.3221 15.5345 32.2996 15.7097 32.2565 15.8792C32.0229 16.8022 31.1908 17.4841 30.1993 17.4841C29.0257 17.4841 28.0764 16.531 28.0764 15.3528C28.0764 14.6699 28.3963 14.0625 28.8944 13.6726C29.2546 13.3891 29.7077 13.2214 30.1993 13.2214C31.3719 13.2214 32.3221 14.1755 32.3221 15.3528Z" fill="white"/>
<path d="M32.3232 15.352C32.3232 15.5338 32.3007 15.709 32.2575 15.8785C31.8973 16.162 31.4452 16.3296 30.9527 16.3296C29.7792 16.3296 28.8298 15.3765 28.8298 14.1983C28.8298 14.0165 28.8523 13.8395 28.8946 13.6718C29.2548 13.3883 29.7079 13.2207 30.1994 13.2207C31.3729 13.2207 32.3232 14.1748 32.3232 15.352Z" fill="white"/>
</g>
<defs>
<clipPath id="clip0_2733_25195">
<rect width="24.3409" height="34" fill="white" transform="translate(8 3)"/>
</clipPath>
</defs>
</svg>
