<svg width="40" height="40" viewBox="0 0 40 40" fill="none" xmlns="http://www.w3.org/2000/svg">
<circle cx="20" cy="20" r="20" fill="#E7563E"/>
<path d="M14.9988 21.25C15.3457 21.25 15.641 21.1285 15.8846 20.8857C16.1282 20.6429 16.2499 20.348 16.2499 20.0011C16.2499 19.6542 16.1285 19.359 15.8857 19.1154C15.6429 18.8718 15.348 18.75 15.0011 18.75C14.6542 18.75 14.359 18.8714 14.1154 19.1143C13.8718 19.3571 13.75 19.652 13.75 19.9989C13.75 20.3458 13.8714 20.641 14.1143 20.8846C14.3571 21.1282 14.6519 21.25 14.9988 21.25ZM19.9988 21.25C20.3458 21.25 20.641 21.1285 20.8846 20.8857C21.1282 20.6429 21.25 20.348 21.25 20.0011C21.25 19.6542 21.1285 19.359 20.8857 19.1154C20.6429 18.8718 20.348 18.75 20.0011 18.75C19.6542 18.75 19.359 18.8714 19.1154 19.1143C18.8718 19.3571 18.75 19.652 18.75 19.9989C18.75 20.3458 18.8714 20.641 19.1143 20.8846C19.3571 21.1282 19.6519 21.25 19.9988 21.25ZM24.9989 21.25C25.3458 21.25 25.641 21.1285 25.8846 20.8857C26.1282 20.6429 26.25 20.348 26.25 20.0011C26.25 19.6542 26.1285 19.359 25.8857 19.1154C25.6429 18.8718 25.348 18.75 25.0011 18.75C24.6542 18.75 24.359 18.8714 24.1154 19.1143C23.8718 19.3571 23.75 19.652 23.75 19.9989C23.75 20.3458 23.8714 20.641 24.1143 20.8846C24.3571 21.1282 24.652 21.25 24.9989 21.25ZM20.0016 29.5C18.6877 29.5 17.4527 29.2506 16.2966 28.752C15.1404 28.2533 14.1347 27.5765 13.2795 26.7217C12.4243 25.8669 11.7472 24.8616 11.2483 23.706C10.7494 22.5504 10.5 21.3156 10.5 20.0017C10.5 18.6877 10.7493 17.4527 11.248 16.2966C11.7467 15.1404 12.4234 14.1347 13.2783 13.2795C14.1331 12.4243 15.1383 11.7472 16.294 11.2483C17.4496 10.7494 18.6844 10.5 19.9983 10.5C21.3122 10.5 22.5473 10.7493 23.7034 11.248C24.8596 11.7467 25.8652 12.4234 26.7205 13.2783C27.5757 14.1331 28.2527 15.1383 28.7516 16.294C29.2505 17.4496 29.5 18.6844 29.5 19.9983C29.5 21.3122 29.2506 22.5473 28.752 23.7034C28.2533 24.8596 27.5765 25.8652 26.7217 26.7205C25.8669 27.5757 24.8616 28.2527 23.706 28.7516C22.5504 29.2505 21.3156 29.5 20.0016 29.5Z" fill="white"/>
</svg>
