<svg width="40" height="40" viewBox="0 0 40 40" fill="none" xmlns="http://www.w3.org/2000/svg">
<circle cx="20" cy="20" r="20" fill="#FF947A"/>
<g clip-path="url(#clip0_1522_21308)">
<path fill-rule="evenodd" clip-rule="evenodd" d="M20 32C26.6274 32 32 26.6274 32 20C32 13.3726 26.6274 8 20 8C13.3726 8 8 13.3726 8 20C8 26.6274 13.3726 32 20 32ZM15.4794 25.4844C16.7581 26.4948 18.2356 27 19.9119 27C20.8959 27 21.8175 26.8163 22.6769 26.4489C23.5362 26.0814 24.2856 25.582 24.9249 24.9507C25.5642 24.3193 26.0699 23.5792 26.4419 22.7303C26.814 21.8814 27 20.9712 27 19.9995C27 19.0279 26.814 18.1178 26.4419 17.2692C26.0699 16.4207 25.5642 15.6807 24.9249 15.0493C24.2856 14.418 23.5362 13.9186 22.6769 13.5511C21.8175 13.1837 20.8959 13 19.9119 13C18.8631 13 17.8667 13.2178 16.9227 13.6533C15.9787 14.0888 15.1683 14.7009 14.4916 15.4896V14.1561C14.4916 13.9811 14.4317 13.8344 14.312 13.716C14.1922 13.5976 14.0437 13.5384 13.8664 13.5384C13.6892 13.5384 13.5406 13.5976 13.4206 13.716C13.3007 13.8344 13.2408 13.9811 13.2408 14.1561V16.9751C13.2408 17.186 13.313 17.3627 13.4575 17.5054C13.6019 17.6481 13.7809 17.7194 13.9945 17.7194H16.8489C17.0261 17.7194 17.1747 17.6603 17.2945 17.542C17.4144 17.4238 17.4743 17.2771 17.4743 17.1021C17.4743 16.927 17.4144 16.7802 17.2945 16.6618C17.1747 16.5434 17.0261 16.4841 16.8489 16.4841H15.2934C15.8686 15.7841 16.5544 15.2343 17.3509 14.8347C18.1474 14.4351 19.001 14.2353 19.9119 14.2353C21.538 14.2353 22.9174 14.7946 24.0501 15.9132C25.1828 17.0319 25.7492 18.3941 25.7492 20C25.7492 21.6059 25.1828 22.9681 24.0501 24.0868C22.9174 25.2054 21.538 25.7647 19.9119 25.7647C18.5648 25.7647 17.3661 25.3564 16.3157 24.5397C15.2653 23.7231 14.5814 22.6786 14.2638 21.4063C14.2104 21.2342 14.116 21.1038 13.9808 21.0151C13.8455 20.9265 13.6927 20.8932 13.5221 20.9154C13.3409 20.9376 13.2009 21.0173 13.102 21.1545C13.0031 21.2918 12.9761 21.4422 13.021 21.6059C13.3813 23.1811 14.2008 24.474 15.4794 25.4844Z" fill="white"/>
</g>
<defs>
<clipPath id="clip0_1522_21308">
<rect width="24" height="24" fill="white" transform="translate(8 8)"/>
</clipPath>
</defs>
</svg>
