<svg width="40" height="40" viewBox="0 0 40 40" fill="none" xmlns="http://www.w3.org/2000/svg">
<circle cx="20" cy="20" r="20" fill="#7D7AFF"/>
<g clip-path="url(#clip0_3162_23876)">
<g clip-path="url(#clip1_3162_23876)">
<path fill-rule="evenodd" clip-rule="evenodd" d="M32 20C32 26.6274 26.6274 32 20 32C13.3726 32 8 26.6274 8 20C8 13.3726 13.3726 8 20 8C26.6274 8 32 13.3726 32 20ZM14 17C14 16.4477 14.4477 16 15 16H25C25.5523 16 26 16.4477 26 17C26 17.5523 25.5523 18 25 18H15C14.4477 18 14 17.5523 14 17ZM15 22C14.4477 22 14 22.4477 14 23C14 23.5523 14.4477 24 15 24H25C25.5523 24 26 23.5523 26 23C26 22.4477 25.5523 22 25 22H15Z" fill="white"/>
</g>
</g>
<defs>
<clipPath id="clip0_3162_23876">
<rect width="24" height="24" fill="white" transform="translate(8 8)"/>
</clipPath>
<clipPath id="clip1_3162_23876">
<rect width="24" height="24" fill="white" transform="translate(8 8)"/>
</clipPath>
</defs>
</svg>
