<svg width="24" height="24" viewBox="0 0 24 24" fill="none" xmlns="http://www.w3.org/2000/svg">
<g clip-path="url(#clip0_3162_23878)">
<g clip-path="url(#clip1_3162_23878)">
<path fill-rule="evenodd" clip-rule="evenodd" d="M24 12C24 18.6274 18.6274 24 12 24C5.37258 24 0 18.6274 0 12C0 5.37258 5.37258 0 12 0C18.6274 0 24 5.37258 24 12ZM6 9C6 8.44771 6.44772 8 7 8H17C17.5523 8 18 8.44771 18 9C18 9.55229 17.5523 10 17 10H7C6.44771 10 6 9.55229 6 9ZM7 14C6.44772 14 6 14.4477 6 15C6 15.5523 6.44771 16 7 16H17C17.5523 16 18 15.5523 18 15C18 14.4477 17.5523 14 17 14H7Z" fill="white"/>
</g>
</g>
<defs>
<clipPath id="clip0_3162_23878">
<rect width="24" height="24" fill="white"/>
</clipPath>
<clipPath id="clip1_3162_23878">
<rect width="24" height="24" fill="white"/>
</clipPath>
</defs>
</svg>
