<svg width="20" height="20" viewBox="0 0 20 20" fill="none" xmlns="http://www.w3.org/2000/svg">
<path d="M8.28555 2.29097C8.10847 2.29097 7.96004 2.23106 7.84026 2.11122C7.72047 1.99138 7.66058 1.84288 7.66058 1.66572C7.66058 1.48856 7.72047 1.34015 7.84026 1.2205C7.96004 1.10084 8.10847 1.04102 8.28555 1.04102H11.7151C11.8921 1.04102 12.0406 1.10093 12.1603 1.22077C12.2801 1.34061 12.34 1.48911 12.34 1.66627C12.34 1.84343 12.2801 1.99184 12.1603 2.11149C12.0406 2.23115 11.8921 2.29097 11.7151 2.29097H8.28555ZM10.0006 11.5057C10.1777 11.5057 10.3262 11.4458 10.4458 11.326C10.5655 11.2063 10.6253 11.0578 10.6253 10.8807V7.45125C10.6253 7.27416 10.5654 7.12573 10.4455 7.00595C10.3257 6.88616 10.1772 6.82627 10 6.82627C9.82287 6.82627 9.67446 6.88616 9.5548 7.00595C9.43515 7.12573 9.37533 7.27416 9.37533 7.45125V10.8807C9.37533 11.0578 9.43524 11.2063 9.55508 11.326C9.67492 11.4458 9.82342 11.5057 10.0006 11.5057ZM10.0003 17.916C9.02846 17.916 8.11242 17.7301 7.2522 17.3583C6.39198 16.9865 5.64028 16.479 4.99712 15.8358C4.35396 15.1927 3.84649 14.441 3.4747 13.5808C3.10289 12.7205 2.91699 11.8045 2.91699 10.8327C2.91699 9.86082 3.10289 8.94478 3.4747 8.08456C3.84649 7.22434 4.35396 6.47264 4.99712 5.82947C5.64028 5.18632 6.39198 4.67885 7.2522 4.30706C8.11242 3.93525 9.02846 3.74935 10.0003 3.74935C10.8347 3.74935 11.6384 3.89091 12.4114 4.17404C13.1843 4.45716 13.902 4.86261 14.5644 5.39039L15.1638 4.79102C15.2791 4.67564 15.4242 4.61662 15.5988 4.61395C15.7735 4.61127 15.9212 4.67029 16.042 4.79102C16.1627 4.91175 16.223 5.05812 16.223 5.23012C16.223 5.40212 16.1627 5.54848 16.042 5.6692L15.4426 6.26858C15.9704 6.93097 16.3758 7.64864 16.6589 8.4216C16.9421 9.19457 17.0836 9.99826 17.0836 10.8327C17.0836 11.8045 16.8977 12.7205 16.5259 13.5808C16.1541 14.441 15.6466 15.1927 15.0035 15.8358C14.3603 16.479 13.6086 16.9865 12.7484 17.3583C11.8882 17.7301 10.9722 17.916 10.0003 17.916ZM10.0003 16.666C11.6114 16.666 12.9864 16.0966 14.1253 14.9577C15.2642 13.8188 15.8336 12.4438 15.8336 10.8327C15.8336 9.22155 15.2642 7.84655 14.1253 6.70766C12.9864 5.56877 11.6114 4.99933 10.0003 4.99933C8.38919 4.99933 7.01419 5.56877 5.8753 6.70766C4.73642 7.84655 4.16697 9.22155 4.16697 10.8327C4.16697 12.4438 4.73642 13.8188 5.8753 14.9577C7.01419 16.0966 8.38919 16.666 10.0003 16.666Z" fill="white"/>
</svg>
