<svg width="50" height="52" viewBox="0 0 50 52" fill="none" xmlns="http://www.w3.org/2000/svg">
<path d="M11.931 6.08173H12.5921V6.74221C12.5921 6.90308 12.723 7.03341 12.8839 7.03341C13.0453 7.03341 13.1762 6.90308 13.1762 6.74221V6.08173H13.8373C13.9988 6.08173 14.1291 5.9508 14.1291 5.78994C14.1291 5.62849 13.9988 5.49815 13.8373 5.49815H13.1762V4.83767C13.1762 4.67563 13.0459 4.54471 12.8839 4.54471C12.723 4.54471 12.5921 4.67563 12.5921 4.83767V5.49815H11.931C11.7696 5.49815 11.6392 5.62849 11.6392 5.78994C11.6392 5.9508 11.7696 6.08173 11.931 6.08173Z" fill="#FBEBCD"/>
<path d="M42.8246 25.7025H43.4845V26.3653C43.4845 26.5268 43.6154 26.6577 43.7769 26.6577C43.9378 26.6577 44.0681 26.5268 44.0681 26.3653V25.7025H44.7298C44.8912 25.7025 45.0215 25.5716 45.0215 25.4107C45.0215 25.2493 44.8912 25.1189 44.7298 25.1189H44.0681V24.4584C44.0681 24.2976 43.9378 24.1667 43.7769 24.1667C43.6154 24.1667 43.4845 24.2976 43.4845 24.4584V25.1189H42.8246C42.6638 25.1189 42.5328 25.2493 42.5328 25.4107C42.5328 25.5716 42.6632 25.7025 42.8246 25.7025Z" fill="#FBEBCD"/>
<path d="M45.8423 18.8611H46.5034V19.5233C46.5034 19.6842 46.6343 19.8157 46.7946 19.8157C46.956 19.8157 47.0875 19.6848 47.0875 19.5233V18.8611H47.748C47.9089 18.8611 48.0398 18.7307 48.0398 18.5693C48.0398 18.4078 47.9089 18.2775 47.748 18.2775H47.0875V17.6176C47.0875 17.4567 46.956 17.3258 46.7946 17.3258C46.6343 17.3258 46.5034 17.4561 46.5034 17.6176V18.2775H45.8423C45.6814 18.2775 45.5505 18.4078 45.5505 18.5693C45.5505 18.7307 45.6814 18.8611 45.8423 18.8611Z" fill="#FBEBCD"/>
<path d="M36.7863 8.69785H37.4474V9.35833C37.4474 9.5192 37.5777 9.65012 37.7392 9.65012C37.9001 9.65012 38.0304 9.5192 38.0304 9.35833V8.69785H38.6915C38.8523 8.69785 38.9832 8.56751 38.9832 8.40606C38.9832 8.24461 38.8523 8.11427 38.6915 8.11427H38.0304V7.4532C38.0304 7.29175 37.9001 7.16083 37.7392 7.16083C37.5777 7.16083 37.4474 7.29175 37.4474 7.4532V8.11427H36.7863C36.6255 8.11427 36.494 8.2452 36.494 8.40606C36.494 8.56692 36.6255 8.69785 36.7863 8.69785Z" fill="#FBEBCD"/>
<path d="M2.3713 24.1954H3.03355V24.8559C3.03355 25.0162 3.16388 25.1477 3.32533 25.1477C3.48737 25.1477 3.61771 25.0168 3.61771 24.8559V24.1954H4.27819C4.43964 24.1954 4.56998 24.0651 4.56998 23.9031C4.56998 23.7422 4.43964 23.6113 4.27819 23.6113H3.61771V22.9496C3.61771 22.7882 3.48737 22.6578 3.32533 22.6578C3.16447 22.6578 3.03355 22.7882 3.03355 22.9496V23.6113H2.3713C2.20985 23.6113 2.07951 23.7416 2.07951 23.9031C2.0801 24.0645 2.20985 24.1954 2.3713 24.1954Z" fill="#FBEBCD"/>
<path d="M2.3713 12.723H3.03355V13.384C3.03355 13.5455 3.16388 13.6764 3.32533 13.6764C3.48737 13.6764 3.61771 13.5455 3.61771 13.384V12.723H4.27819C4.43964 12.723 4.56998 12.592 4.56998 12.4312C4.56998 12.2697 4.43964 12.1388 4.27819 12.1388H3.61771V11.4789C3.61771 11.318 3.48737 11.1871 3.32533 11.1871C3.16447 11.1871 3.03355 11.318 3.03355 11.4789V12.1388H2.3713C2.20985 12.1388 2.07951 12.2697 2.07951 12.4312C2.0801 12.592 2.20985 12.723 2.3713 12.723Z" fill="#FBEBCD"/>
<path d="M49.9109 50.2361C49.9032 50.0905 49.8956 49.9355 49.8956 49.7764C49.8956 48.5576 48.6604 47.5666 47.1433 47.5666H45.5123V34.6452C45.5123 31.9927 43.3536 29.8357 40.7023 29.8357H39.4664V18.2716C39.4664 16.3248 37.8824 14.7408 35.935 14.7408H33.4739V12.8656L33.4792 12.8645C33.4775 12.8598 33.4757 12.8557 33.4739 12.8504V10.7903L33.4792 10.7891C33.4775 10.7844 33.4757 10.7809 33.4739 10.775V8.71428L33.4792 8.7131C33.4775 8.70841 33.4757 8.70488 33.4739 8.6996V5.70247H32.0919V4.87584C32.5117 4.77016 32.8962 4.48483 33.1264 4.07856C33.4305 3.54313 33.4199 2.92668 33.0982 2.38831C32.4307 1.27283 32.177 0.480832 32.1741 0.4732L32.0238 0L31.6833 0.360477C31.671 0.373393 31.3774 0.684555 31.1625 0.992193C31.0886 1.08143 29.3889 3.18265 30.751 4.50127C30.9741 4.71732 31.233 4.85118 31.5089 4.90167V5.70247H30.1275V14.7408H26.6307V12.8656L26.6354 12.8645C26.6343 12.8586 26.6313 12.8545 26.6307 12.8492V10.7908L26.6354 10.7897C26.6343 10.7844 26.6313 10.7797 26.6307 10.7738V8.71486L26.6354 8.71369C26.6343 8.70841 26.6313 8.70429 26.6307 8.69842V5.70306H25.2487V4.87642C25.6679 4.77075 26.0519 4.48542 26.2826 4.07974C26.5867 3.54372 26.5761 2.92785 26.2538 2.3889C25.5875 1.27341 25.3332 0.481419 25.3309 0.474374L25.1818 0.00176116L24.8401 0.361064C24.8278 0.374568 24.5342 0.685729 24.3182 0.993368C24.2442 1.08261 22.5445 3.18383 23.9084 4.50244C24.1309 4.7185 24.3892 4.85235 24.6657 4.90284V5.70364H23.2855V14.742H19.7881V12.8668L19.7928 12.8662C19.7916 12.8615 19.7893 12.8568 19.7881 12.8521V10.7914L19.7928 10.7903C19.7916 10.7856 19.7893 10.782 19.7881 10.7762V8.71545L19.7928 8.71428C19.7916 8.70958 19.7893 8.70606 19.7881 8.70077V5.70364H18.4061V4.87701C18.8247 4.77133 19.2098 4.48601 19.4406 4.07974C19.7441 3.54372 19.7335 2.92785 19.4112 2.38948C18.7454 1.274 18.4918 0.482006 18.4889 0.474961L18.3386 0.00117411L17.9981 0.35989C17.9857 0.373393 17.6916 0.684555 17.475 0.992193C17.4016 1.08143 15.7019 3.18265 17.0658 4.50127C17.2883 4.71732 17.5466 4.85118 17.8225 4.90167V5.70247H16.4411V14.7408H13.9911C12.0443 14.7408 10.4609 16.3248 10.4609 18.2716V29.8357H9.22449C6.57257 29.8357 4.41558 31.9932 4.41558 34.6452V47.5666H2.79167C1.27344 47.5666 0.0381872 48.5576 0.0381872 49.7764C0.0381872 49.9373 0.0276195 50.0923 0.018226 50.2367C-0.0134772 50.7287 -0.0457675 51.2377 0.311187 51.6187C0.543678 51.8665 0.875974 51.9868 1.32921 51.9868H48.6944C49.0872 51.9868 49.396 51.8723 49.6109 51.6445C49.9666 51.2682 49.9391 50.7439 49.9109 50.2361ZM31.1561 4.0815C30.1803 3.13686 31.5982 1.37968 31.6246 1.34563C31.6786 1.26872 31.7373 1.19239 31.796 1.12077C31.9475 1.48242 32.2035 2.02959 32.5956 2.68714C32.8076 3.04057 32.8158 3.44215 32.6174 3.7903C32.4283 4.12612 32.0884 4.34217 31.752 4.34217C31.5359 4.34275 31.3351 4.25528 31.1561 4.0815ZM30.7105 6.28546H32.8892V7.85477C32.5792 7.6487 32.2023 7.54713 31.8676 7.46024C31.2242 7.2935 30.8238 7.16493 30.7105 6.69114V6.28546ZM30.7105 7.63578C31.0163 7.83833 31.3892 7.93931 31.7209 8.02502C32.3579 8.19059 32.7594 8.32092 32.8892 8.78179V9.93074C32.5792 9.72467 32.2023 9.62251 31.867 9.53621C31.2242 9.36889 30.8238 9.2409 30.7105 8.76653V7.63578ZM30.7105 9.71117C31.0163 9.91371 31.3886 10.0141 31.7203 10.1004C32.3579 10.2654 32.7594 10.3969 32.8892 10.8578V12.0055C32.5792 11.7995 32.2023 11.6979 31.867 11.6104C31.2242 11.4443 30.8238 11.3157 30.7105 10.8419V9.71117ZM30.7105 11.7871C31.0163 11.9897 31.3886 12.0901 31.7203 12.1764C32.3579 12.3414 32.7594 12.4723 32.8892 12.9337V14.7408H30.7105V11.7871ZM24.314 4.0815C23.3365 3.13627 24.7544 1.37968 24.7814 1.34563C24.836 1.26872 24.8947 1.19239 24.9534 1.12077C25.1043 1.48183 25.3597 2.02959 25.7536 2.68714C25.9644 3.04057 25.972 3.44215 25.7742 3.7903C25.5845 4.12612 25.2452 4.34217 24.91 4.34217C24.6933 4.34275 24.4931 4.25528 24.314 4.0815ZM23.869 6.28546H26.0466V7.85477C25.736 7.6487 25.3591 7.54713 25.0238 7.46024C24.3833 7.29409 23.9823 7.16552 23.869 6.69525V6.28546ZM23.869 7.63695C24.1749 7.83833 24.546 7.93931 24.8771 8.02502C25.5129 8.19 25.9151 8.32092 26.0472 8.78003V9.93015C25.7366 9.72467 25.3591 9.62251 25.0244 9.53621C24.3833 9.36889 23.9829 9.2409 23.8696 8.77122L23.869 7.63695ZM23.869 9.71293C24.1749 9.9143 24.546 10.0147 24.8771 10.1004C25.5129 10.2654 25.9151 10.3963 26.0472 10.856V12.0055C25.7366 11.7995 25.3591 11.6979 25.0244 11.6104C24.3833 11.4449 23.9829 11.3163 23.8696 10.8454L23.869 9.71293ZM23.869 11.7883C24.1749 11.9903 24.546 12.0901 24.8771 12.1764C25.5129 12.3414 25.9151 12.4711 26.0472 12.9314V14.7408H23.869V11.7883ZM17.4714 4.0815C16.4933 3.13627 17.9118 1.37968 17.9382 1.34563C17.9928 1.26872 18.0521 1.19181 18.1096 1.12018C18.2617 1.48124 18.5171 2.02959 18.9098 2.68714C19.1206 3.04057 19.1288 3.44215 18.9315 3.7903C18.7419 4.12612 18.402 4.34217 18.0656 4.34217C17.8507 4.34275 17.6499 4.25528 17.4714 4.0815ZM17.0241 6.28546H19.204V7.85477C18.8928 7.6487 18.5171 7.54713 18.1818 7.46024C17.539 7.2935 17.1374 7.16493 17.0241 6.69114V6.28546ZM17.0241 7.63578C17.3305 7.83833 17.7039 7.93931 18.035 8.02502C18.6709 8.19059 19.073 8.32092 19.204 8.78179V9.93015C18.8928 9.72467 18.5159 9.62251 18.1812 9.53621C17.539 9.36889 17.1374 9.2409 17.0241 8.76653V7.63578ZM17.0241 9.71117C17.3305 9.9143 17.7033 10.0141 18.0345 10.101C18.6709 10.266 19.073 10.3975 19.204 10.8584V12.0061C18.8928 11.8001 18.5159 11.6985 18.1812 11.611C17.539 11.4449 17.1374 11.3163 17.0241 10.8419V9.71117ZM17.0241 11.7866C17.3305 11.9891 17.7033 12.0901 18.0345 12.1758C18.6709 12.3408 19.073 12.4717 19.204 12.9326V14.7408H17.0241V11.7866ZM11.6375 18.1648C11.6956 16.9119 12.7236 15.908 13.9905 15.908H35.9339C37.2384 15.908 38.2987 16.9683 38.2987 18.2716V19.3431L38.2905 19.3442L38.2934 20.3664C38.2934 21.0427 37.7427 21.5928 37.0664 21.5928V21.5969C36.4118 21.5735 35.884 21.0368 35.884 20.3916L35.8892 20.276L35.881 20.2407C35.881 19.2427 35.0702 18.4307 34.0716 18.4307C33.0741 18.4307 32.2622 19.2427 32.2622 20.2407L32.2651 21.8247C32.2651 22.4999 31.715 23.0488 31.0398 23.0488C30.3629 23.0488 29.8128 22.4993 29.8157 21.7919V19.7493C29.8122 18.7566 29.0003 17.9481 28.0075 17.9481C27.0217 17.9481 26.2198 18.7695 26.2198 19.781L26.2227 21.3404C26.2227 22.0161 25.6732 22.5668 24.9968 22.5668C24.3205 22.5668 23.771 22.0161 23.768 21.3715L23.7739 20.3188L23.7669 20.2407C23.7669 19.2427 22.9561 18.4307 21.958 18.4307C20.96 18.4307 20.1486 19.2427 20.1486 20.2407L20.1521 21.0997C20.1521 21.7754 19.602 22.3249 18.9257 22.3249C18.2499 22.3249 17.6992 21.7754 17.6981 21.1278L17.7033 19.2662C17.6992 18.2728 16.8879 17.4644 15.8939 17.4644C14.8958 17.4644 14.0839 18.2763 14.0839 19.2738L14.0874 20.8572C14.0874 21.5329 13.5367 22.0825 12.8598 22.0825C12.1852 22.0825 11.6345 21.5324 11.6328 20.8842L11.6375 18.1636V18.1648ZM11.6269 22.1723C11.9504 22.4764 12.3831 22.666 12.8616 22.666C13.8602 22.666 14.6722 21.8547 14.6692 20.822V19.2738C14.6692 18.5986 15.2187 18.0474 15.8951 18.0474C16.5679 18.0474 17.1174 18.5951 17.1204 19.2673L17.1168 21.0991C17.1168 22.0966 17.9288 22.9079 18.9268 22.9079C19.9249 22.9079 20.7369 22.0966 20.7339 21.0633V20.2396C20.7339 19.5638 21.284 19.0137 21.9592 19.0137C22.635 19.0137 23.1851 19.5638 23.1851 20.2396C23.1851 20.3053 23.1927 20.3359 23.1921 20.3177L23.188 21.3392C23.188 22.3367 24.0005 23.1486 24.998 23.1486C25.9961 23.1486 26.808 22.3367 26.808 21.3392L26.8045 19.7787C26.8045 19.0906 27.3452 18.5305 28.0092 18.5305C28.6815 18.5305 29.231 19.0783 29.2339 19.7499L29.2351 21.7643L29.5245 21.8048L29.231 21.8236C29.231 22.8204 30.0429 23.6318 31.0416 23.6318C32.0385 23.6318 32.8504 22.8204 32.8463 21.7872V20.2396C32.8463 19.5638 33.397 19.0137 34.0734 19.0137C34.7497 19.0137 35.2992 19.5638 35.2992 20.2396C35.2992 20.276 35.3016 20.3071 35.3057 20.3353L35.3027 20.3734C35.3027 21.3715 36.1147 22.1834 37.1116 22.1834V22.1705C37.5707 22.16 37.9852 21.9768 38.2999 21.6803V24.9704H11.6269V22.1723ZM11.6269 25.5546H38.2999V27.0834H11.6269V25.5546ZM11.6269 27.6669H38.2999V29.8351H11.6269V27.6669ZM5.61208 34.1996C5.83283 32.4001 7.36692 31.0034 9.2239 31.0034H40.7017C42.7107 31.0034 44.3446 32.6367 44.3446 34.6452V36.2356C44.1931 36.7399 43.7293 37.1116 43.1757 37.1116C42.4994 37.1116 41.9493 36.5609 41.9475 35.9121L41.9528 34.3029C41.9528 33.306 41.1402 32.4952 40.1428 32.4952C39.1512 32.4952 38.3404 33.3025 38.3333 34.2958L38.3369 37.337C38.3369 38.0122 37.7873 38.5629 37.111 38.5629C36.4347 38.5629 35.8846 38.0122 35.8822 37.364L35.8881 35.2704C35.8881 34.2724 35.0761 33.4604 34.0781 33.4604C33.0812 33.4604 32.2692 34.2724 32.2692 35.2704L32.2633 35.3485L32.2663 36.3701C32.2663 37.0464 31.7162 37.5977 31.0398 37.5977V37.6C30.3852 37.5759 29.8586 37.0399 29.858 36.3912L29.8604 36.3378L29.8533 36.2456C29.8533 35.2464 29.0419 34.4338 28.0456 34.4338C27.047 34.4338 26.2339 35.2464 26.2339 36.2456L26.238 37.8266C26.238 38.5024 25.6879 39.0519 25.0127 39.0519C24.3364 39.0519 23.7862 38.5024 23.7839 37.8589L23.7898 35.7524C23.7857 34.7596 22.9743 33.9506 21.9809 33.9506C20.9958 33.9506 20.1938 34.7726 20.1938 35.783L20.1973 37.3452C20.1973 38.0198 19.6472 38.5705 18.9709 38.5705C18.2951 38.5705 17.745 38.0198 17.7427 37.3769L17.7485 36.3219L17.7415 36.2456C17.7415 35.2464 16.9295 34.4338 15.9315 34.4338C14.934 34.4338 14.1221 35.2464 14.1221 36.2456L14.1262 38.3116C14.1262 38.9867 13.5761 39.5374 12.9003 39.5374C12.224 39.5374 11.6727 38.9867 11.6709 38.3368L11.6768 35.2698C11.6715 34.2771 10.8601 33.4686 9.86736 33.4686C8.86988 33.4686 8.05734 34.2812 8.05734 35.2786L8.05969 36.8609C8.05969 37.5366 7.51017 38.0873 6.83501 38.0873C6.15867 38.0873 5.60973 37.5366 5.61208 36.828V34.1996ZM5.58155 38.1613C5.90739 38.4754 6.3483 38.6709 6.83501 38.6709C7.83248 38.6709 8.64385 37.8589 8.64092 36.8239V35.2775C8.64092 34.6023 9.19161 34.051 9.86736 34.051C10.5402 34.051 11.0897 34.5994 11.0926 35.2704L11.0891 38.3104C11.0891 39.3073 11.9016 40.1193 12.8997 40.1193C13.8972 40.1193 14.7091 39.3073 14.705 38.274V36.2444C14.705 35.5669 15.2551 35.0162 15.9309 35.0162C16.6072 35.0162 17.1573 35.5669 17.1573 36.2444C17.1573 36.2814 17.1603 36.3149 17.1644 36.3472L17.1614 37.344C17.1614 38.3403 17.9728 39.1517 18.9709 39.1517C19.9689 39.1517 20.7809 38.3403 20.7809 37.344L20.778 35.7818C20.778 35.0937 21.3169 34.5336 21.9815 34.5336C22.6543 34.5336 23.2038 35.0814 23.2068 35.753L23.2033 37.8261C23.2033 38.8235 24.0152 39.6355 25.0133 39.6355C26.0102 39.6355 26.8227 38.8235 26.8186 37.7902V36.2444C26.8186 35.5669 27.3687 35.0162 28.0462 35.0162C28.7208 35.0162 29.2709 35.5669 29.2709 36.2444C29.2709 36.3025 29.2774 36.3419 29.2762 36.3777C29.2762 37.3746 30.0876 38.1865 31.085 38.1865V38.1748C32.0608 38.1501 32.8504 37.3517 32.8463 36.3354L32.8422 35.3978C32.8469 35.3661 32.8534 35.3268 32.8534 35.2687C32.8534 34.5923 33.4023 34.0422 34.0786 34.0422C34.755 34.0422 35.3057 34.5923 35.3057 35.2687L35.3016 37.3358C35.3016 38.3327 36.1135 39.1447 37.1116 39.1447C38.1096 39.1447 38.921 38.3327 38.9175 37.3029V34.297C38.921 33.6242 39.4711 33.0776 40.1433 33.0776C40.8191 33.0776 41.3692 33.6266 41.3692 34.3017L41.3663 35.8839C41.3663 36.8826 42.1782 37.6934 43.1763 37.6934C43.6248 37.6934 44.0293 37.5243 44.3452 37.2501V41.4226H5.58155V38.1613ZM5.58155 42.0079H44.3446V44.3417H5.58155V42.0079ZM5.58155 44.9258H44.3446V47.5666H5.58155V44.9258ZM1.32863 50.8197C1.25348 50.8197 1.20416 50.8138 1.17363 50.8079C1.15719 50.6981 1.17246 50.4698 1.18244 50.3113C1.19359 50.1428 1.20534 49.9625 1.20534 49.7758C1.20534 49.221 1.94625 48.7331 2.79167 48.7331H7.29294L5.46766 50.724L5.57216 50.8197H1.32863ZM6.17159 50.8197L8.08493 48.7331H11.0257L9.11353 50.8197H6.17159ZM48.7525 50.8173C48.7373 50.8191 48.7167 50.8197 48.6932 50.8197H9.90376L11.8159 48.7331H47.1427C47.987 48.7331 48.7273 49.221 48.7273 49.7758C48.7273 49.9578 48.7373 50.1322 48.7455 50.2972C48.7555 50.4709 48.7678 50.6987 48.7525 50.8173Z" fill="#FBEBCD"/>
<path d="M15.1031 26.2233L14.8835 26.2702C14.7262 26.3037 14.6258 26.4587 14.6592 26.616C14.6886 26.7528 14.8095 26.8473 14.9434 26.8473C14.9639 26.8473 14.9851 26.8456 15.0056 26.8409L15.224 26.7939C15.3814 26.7599 15.4823 26.606 15.4489 26.4475C15.4148 26.2896 15.2581 26.1898 15.1031 26.2233Z" fill="#FBEBCD"/>
<path d="M17.9118 25.6444L17.6928 25.6914C17.5354 25.7248 17.435 25.8804 17.4685 26.0377C17.4979 26.1745 17.6188 26.2685 17.7527 26.2685C17.7738 26.2685 17.7943 26.2667 17.8143 26.262L18.0339 26.215C18.1912 26.181 18.2916 26.0266 18.2581 25.8687C18.2247 25.7107 18.0673 25.6097 17.9118 25.6444Z" fill="#FBEBCD"/>
<path d="M24.5912 26.3154L24.3716 26.3606C24.2136 26.3935 24.1121 26.5479 24.145 26.7059C24.1737 26.8432 24.2947 26.9383 24.4297 26.9383C24.4503 26.9383 24.4696 26.936 24.4896 26.9313L24.7092 26.8861C24.8671 26.8532 24.9687 26.6988 24.9352 26.5415C24.9035 26.3835 24.7456 26.2849 24.5912 26.3154Z" fill="#FBEBCD"/>
<path d="M20.7228 26.1863L20.5044 26.2315C20.3459 26.2649 20.2449 26.4194 20.2778 26.5767C20.3065 26.7147 20.428 26.8092 20.5631 26.8092C20.5825 26.8092 20.603 26.808 20.623 26.8033L20.842 26.7575C20.9999 26.7246 21.1009 26.5702 21.0686 26.4123C21.0351 26.2538 20.8778 26.1522 20.7228 26.1863Z" fill="#FBEBCD"/>
<path d="M13.3506 25.7612L13.1316 25.8082C12.9743 25.8416 12.8733 25.9966 12.9073 26.154C12.9367 26.2914 13.0576 26.3853 13.1915 26.3853C13.2121 26.3853 13.2326 26.383 13.2531 26.3783L13.4715 26.3319C13.6289 26.2984 13.7299 26.1434 13.6958 25.9861C13.6629 25.827 13.5062 25.726 13.3506 25.7612Z" fill="#FBEBCD"/>
<path d="M22.6561 25.7735L22.4365 25.8205C22.2792 25.854 22.1782 26.009 22.2122 26.1669C22.2416 26.3037 22.3631 26.3976 22.497 26.3976C22.5175 26.3976 22.5381 26.3959 22.5586 26.3912L22.7776 26.3442C22.935 26.3102 23.0354 26.1557 23.0025 25.9978C22.9673 25.8399 22.8099 25.7395 22.6561 25.7735Z" fill="#FBEBCD"/>
<path d="M27.9464 26.2233L27.7274 26.2702C27.5695 26.3037 27.4691 26.4587 27.5026 26.616C27.5331 26.7528 27.6535 26.8473 27.7879 26.8473C27.8073 26.8473 27.8278 26.8456 27.849 26.8409L28.0674 26.7939C28.2241 26.7599 28.3257 26.606 28.2922 26.4475C28.2582 26.2896 28.1008 26.1898 27.9464 26.2233Z" fill="#FBEBCD"/>
<path d="M30.7557 25.6438L30.5373 25.6908C30.3793 25.7248 30.2789 25.8804 30.3118 26.0377C30.3412 26.1745 30.4621 26.2691 30.5971 26.2691C30.6165 26.2691 30.6382 26.2673 30.6582 26.2632L30.879 26.2156C31.0357 26.1822 31.1361 26.0272 31.1026 25.8698C31.068 25.7107 30.9107 25.6121 30.7557 25.6438Z" fill="#FBEBCD"/>
<path d="M37.4351 26.3154L37.2161 26.3606C37.0581 26.3935 36.9572 26.5473 36.9895 26.7059C37.0176 26.8432 37.1398 26.9383 37.2748 26.9383C37.2942 26.9383 37.3135 26.936 37.3347 26.9307L37.5537 26.8861C37.7116 26.8526 37.8114 26.6988 37.7797 26.5409C37.7474 26.3835 37.5889 26.2826 37.4351 26.3154Z" fill="#FBEBCD"/>
<path d="M32.4459 26.1516L32.2269 26.1992C32.0696 26.2332 31.9698 26.3882 32.0033 26.5456C32.0326 26.6824 32.1541 26.7763 32.288 26.7763C32.3085 26.7763 32.3291 26.774 32.3496 26.7698L32.5692 26.7223C32.7266 26.6882 32.8264 26.5332 32.7929 26.3753C32.7589 26.218 32.6009 26.1182 32.4459 26.1516Z" fill="#FBEBCD"/>
<path d="M26.1951 25.7612L25.9755 25.8082C25.8176 25.8411 25.7172 25.9966 25.7501 26.1534C25.78 26.2908 25.901 26.3853 26.0354 26.3853C26.056 26.3853 26.0759 26.383 26.0959 26.3788L26.3166 26.3319C26.4746 26.2984 26.575 26.1434 26.5415 25.9861C26.5086 25.8276 26.3466 25.7289 26.1951 25.7612Z" fill="#FBEBCD"/>
<path d="M35.5 25.7735L35.2804 25.8205C35.1225 25.854 35.0221 26.009 35.0556 26.1669C35.0843 26.3037 35.2065 26.3976 35.3391 26.3976C35.3609 26.3976 35.3808 26.3959 35.402 26.3918L35.621 26.3448C35.7777 26.3107 35.8787 26.1557 35.8458 25.9984C35.8129 25.8399 35.6562 25.7418 35.5 25.7735Z" fill="#FBEBCD"/>
<path d="M9.33368 43.151L9.00256 43.2221C8.84522 43.2567 8.746 43.4117 8.78005 43.569C8.80999 43.7058 8.93094 43.7998 9.06479 43.7998C9.08476 43.7998 9.10589 43.798 9.12703 43.7933L9.45874 43.7211C9.61608 43.687 9.7153 43.5315 9.68066 43.3735C9.64661 43.2168 9.4969 43.1146 9.33368 43.151Z" fill="#FBEBCD"/>
<path d="M13.5749 42.2768L13.2443 42.3455C13.087 42.3784 12.986 42.5334 13.0189 42.6913C13.0477 42.8287 13.1686 42.9232 13.3036 42.9232C13.3236 42.9232 13.343 42.9215 13.3647 42.9168L13.6946 42.8481C13.852 42.8152 13.9535 42.6608 13.9201 42.5023C13.8878 42.3443 13.7334 42.2434 13.5749 42.2768Z" fill="#FBEBCD"/>
<path d="M23.6501 43.289L23.3195 43.3583C23.1616 43.3923 23.0612 43.5467 23.0947 43.7047C23.1246 43.842 23.245 43.936 23.38 43.936C23.3999 43.936 23.4199 43.9336 23.441 43.9301L23.7716 43.8596C23.9289 43.8256 24.0299 43.6712 23.9964 43.5138C23.963 43.3553 23.8062 43.2567 23.6501 43.289Z" fill="#FBEBCD"/>
<path d="M17.8149 43.0935L17.4849 43.1616C17.327 43.195 17.2254 43.3489 17.2589 43.5068C17.2871 43.6442 17.408 43.7393 17.5431 43.7393C17.5636 43.7393 17.583 43.7375 17.6029 43.7328L17.9335 43.6647C18.092 43.6318 18.193 43.4774 18.1595 43.3201C18.1284 43.1622 17.9699 43.0629 17.8149 43.0935Z" fill="#FBEBCD"/>
<path d="M15.3626 43.1316L15.032 43.2003C14.8747 43.2332 14.7737 43.3876 14.806 43.545C14.8354 43.6818 14.9557 43.7775 15.0919 43.7775C15.1119 43.7775 15.1313 43.7757 15.1524 43.771L15.4824 43.7023C15.6397 43.6694 15.7407 43.515 15.7078 43.3571C15.6749 43.1986 15.5211 43.0982 15.3626 43.1316Z" fill="#FBEBCD"/>
<path d="M6.69293 42.4518L6.36239 42.5211C6.20505 42.5539 6.10407 42.7078 6.13695 42.8657C6.16513 43.0037 6.28607 43.0982 6.42169 43.0982C6.44106 43.0982 6.46102 43.0958 6.48216 43.0917L6.81269 43.0224C6.96945 42.9896 7.07102 42.8352 7.03814 42.6778C7.00526 42.5199 6.85203 42.4183 6.69293 42.4518Z" fill="#FBEBCD"/>
<path d="M20.7328 42.4712L20.4028 42.5404C20.2449 42.5751 20.1439 42.7295 20.1774 42.8874C20.2067 43.023 20.3282 43.1181 20.4627 43.1181C20.4827 43.1181 20.5032 43.1158 20.5238 43.1117L20.8537 43.0418C21.0116 43.0084 21.112 42.8534 21.0786 42.696C21.0451 42.5375 20.8831 42.4383 20.7328 42.4712Z" fill="#FBEBCD"/>
<path d="M28.7138 43.151L28.3832 43.222C28.2259 43.2567 28.1261 43.4123 28.1607 43.569C28.1912 43.7058 28.3116 43.7998 28.4454 43.7998C28.466 43.7998 28.486 43.798 28.5077 43.7933L28.8376 43.7211C28.995 43.687 29.0948 43.5309 29.0601 43.3735C29.0273 43.2156 28.874 43.1175 28.7138 43.151Z" fill="#FBEBCD"/>
<path d="M32.4553 42.4929L32.1254 42.5622C31.9686 42.5956 31.8682 42.75 31.9017 42.908C31.9293 43.0453 32.0514 43.1404 32.1853 43.1404C32.2064 43.1404 32.2258 43.1381 32.2463 43.1334L32.5757 43.0641C32.733 43.0312 32.8334 42.8768 32.8011 42.7183C32.7677 42.5592 32.6115 42.4594 32.4553 42.4929Z" fill="#FBEBCD"/>
<path d="M43.0307 43.289L42.7002 43.3583C42.5422 43.3923 42.4418 43.5467 42.4753 43.7047C42.5041 43.842 42.6262 43.936 42.76 43.936C42.78 43.936 42.8006 43.9336 42.8211 43.9301L43.151 43.8596C43.309 43.8256 43.4094 43.6712 43.3759 43.5138C43.343 43.3553 43.1863 43.2567 43.0307 43.289Z" fill="#FBEBCD"/>
<path d="M36.1752 43.0911L35.844 43.161C35.6861 43.1945 35.5869 43.3489 35.6192 43.5068C35.6491 43.6442 35.7701 43.7387 35.9045 43.7387C35.9251 43.7387 35.9444 43.7358 35.9656 43.7317L36.2955 43.6624C36.4534 43.6289 36.5532 43.4739 36.521 43.316C36.4893 43.1575 36.3319 43.0588 36.1752 43.0911Z" fill="#FBEBCD"/>
<path d="M26.0736 42.4518L25.7425 42.5211C25.5851 42.5539 25.4847 42.7078 25.517 42.8657C25.5458 43.0037 25.6679 43.0982 25.8023 43.0982C25.8223 43.0982 25.8417 43.0958 25.8628 43.0917L26.1928 43.0224C26.3501 42.9896 26.4511 42.8352 26.4188 42.6778C26.3859 42.5199 26.2333 42.4183 26.0736 42.4518Z" fill="#FBEBCD"/>
<path d="M39.5962 42.5375L39.2662 42.6085C39.1077 42.6432 39.0079 42.7976 39.042 42.9555C39.0713 43.0923 39.1923 43.1862 39.3267 43.1862C39.3472 43.1862 39.3678 43.1845 39.3878 43.1798L39.7183 43.1082C39.8756 43.0735 39.9754 42.9191 39.9414 42.7612C39.9091 42.6044 39.7541 42.5011 39.5962 42.5375Z" fill="#FBEBCD"/>
</svg>
