<svg xmlns="http://www.w3.org/2000/svg" height="24" viewBox="0 -960 960 960" width="24"><path d="M252.309-60.002q-30.308 0-51.308-21-21-20.999-21-51.307v-415.382q0-30.308 21-51.308t51.308-21h102.306V-560H252.309q-4.616 0-8.463 3.846-3.846 3.847-3.846 8.463v415.382q0 4.616 3.846 8.463 3.847 3.846 8.463 3.846h455.382q4.616 0 8.463-3.846 3.846-3.847 3.846-8.463v-415.382q0-4.616-3.846-8.463-3.847-3.846-8.463-3.846H605.385v-59.999h102.306q30.308 0 51.308 21t21 51.308v415.382q0 30.308-21 51.308t-51.308 21H252.309ZM450.001-330v-441.23L376-697.23l-42.153-42.769L480-886.151l146.153 146.152L584-697.23l-74.001-74.001v441.23h-59.998Z"/></svg>