<svg width="24" height="24" viewBox="0 0 24 24" fill="none" xmlns="http://www.w3.org/2000/svg">
<path d="M2.01951 12C2.01951 13.1718 2.32046 14.2381 2.92238 15.199C3.5243 16.1599 4.3227 16.8808 5.31758 17.3615C5.49963 17.4628 5.63681 17.6064 5.72911 17.7923C5.82142 17.9782 5.8304 18.1673 5.75603 18.3596C5.68168 18.5621 5.54675 18.7041 5.35123 18.7855C5.15573 18.8669 4.96696 18.8602 4.78491 18.7653C3.42079 18.1115 2.36886 17.1682 1.62913 15.9355C0.889398 14.7028 0.519531 13.391 0.519531 12C0.519531 10.6192 0.881706 9.31507 1.60606 8.0875C2.33041 6.85993 3.36951 5.91923 4.72336 5.26538C4.90541 5.17051 5.09675 5.16122 5.29738 5.2375C5.49803 5.31378 5.64066 5.4532 5.72526 5.65575C5.80987 5.8378 5.80859 6.02178 5.72141 6.20768C5.63424 6.39356 5.49963 6.53714 5.31758 6.63843C4.3227 7.11919 3.5243 7.84003 2.92238 8.80093C2.32045 9.76183 2.01951 10.8282 2.01951 12ZM14.0195 19.5C11.9374 19.5 10.1669 18.7705 8.70798 17.3115C7.24901 15.8525 6.51953 14.082 6.51953 12C6.51953 9.91794 7.24901 8.14743 8.70798 6.68845C10.1669 5.22948 11.9374 4.5 14.0195 4.5C14.9015 4.5 15.7368 4.64039 16.5253 4.92118C17.3137 5.20194 18.0304 5.59938 18.6752 6.11348C18.8406 6.24168 18.9265 6.40545 18.9329 6.6048C18.9393 6.80415 18.865 6.98139 18.7099 7.13653C18.565 7.28139 18.3887 7.35735 18.181 7.3644C17.9733 7.37145 17.7817 7.31088 17.606 7.18268C17.0996 6.80319 16.5458 6.5112 15.9445 6.3067C15.3432 6.10222 14.7015 5.99998 14.0195 5.99998C12.3528 5.99998 10.9361 6.58331 9.76948 7.74998C8.60282 8.91664 8.01948 10.3333 8.01948 12C8.01948 13.6666 8.60282 15.0833 9.76948 16.25C10.9361 17.4166 12.3528 18 14.0195 18C14.7015 18 15.3432 17.8977 15.9445 17.6933C16.5458 17.4888 17.0996 17.1968 17.606 16.8173C17.7817 16.6891 17.9733 16.6285 18.181 16.6356C18.3887 16.6426 18.565 16.7186 18.7099 16.8634C18.865 17.0186 18.9393 17.1958 18.9329 17.3952C18.9265 17.5945 18.8406 17.7583 18.6752 17.8865C18.0304 18.4006 17.3137 18.798 16.5253 19.0788C15.7368 19.3596 14.9015 19.5 14.0195 19.5ZM20.6234 12.75H13.8272C13.6143 12.75 13.4361 12.6782 13.2926 12.5346C13.149 12.391 13.0772 12.2128 13.0772 12C13.0772 11.7872 13.149 11.609 13.2926 11.4654C13.4361 11.3218 13.6143 11.25 13.8272 11.25H20.6234L19.3003 9.92688C19.1618 9.78843 19.091 9.61439 19.0878 9.40478C19.0846 9.19518 19.1554 9.01794 19.3003 8.87308C19.4451 8.72819 19.6208 8.65575 19.8272 8.65575C20.0336 8.65575 20.2092 8.72819 20.3541 8.87308L22.8483 11.3673C23.0291 11.5481 23.1195 11.759 23.1195 12C23.1195 12.241 23.0291 12.4519 22.8483 12.6327L20.3541 15.1269C20.2156 15.2653 20.0416 15.3362 19.832 15.3394C19.6224 15.3426 19.4451 15.2718 19.3003 15.1269C19.1554 14.982 19.083 14.8064 19.083 14.6C19.083 14.3936 19.1554 14.2179 19.3003 14.0731L20.6234 12.75Z" fill="white"/>
</svg>
