<svg width="312" height="249" viewBox="0 0 312 249" fill="none" xmlns="http://www.w3.org/2000/svg">
<path d="M176.899 215.8C243.889 215.8 298.196 167.492 298.196 107.9C298.196 48.3085 243.889 0 176.899 0C109.908 0 55.6016 48.3085 55.6016 107.9C55.6016 167.492 109.908 215.8 176.899 215.8Z" fill="#F3F3F3"/>
<path d="M264.988 53.7628H17.4223C16.8915 53.7527 16.4703 53.3617 16.4817 52.8895C16.4927 52.4315 16.9075 52.0625 17.4223 52.0527H264.988C265.519 52.0628 265.94 52.4538 265.929 52.9261C265.918 53.3841 265.503 53.753 264.988 53.7628Z" fill="#F3F3F3"/>
<path d="M99.4052 102.789H256.263C261.404 102.789 265.571 106.496 265.571 111.069C265.571 115.641 261.404 119.348 256.263 119.348H99.4052C94.2648 119.348 90.0977 115.641 90.0977 111.069C90.0977 106.496 94.2648 102.789 99.4052 102.789Z" fill="white"/>
<rect x="167.185" y="67.9355" width="97.454" height="21.8738" rx="2.57338" fill="#139AB3"/>
<g clip-path="url(#clip0_2645_25523)">
<path d="M174.917 78.872C174.917 79.6258 175.111 80.3119 175.498 80.93C175.885 81.5482 176.399 82.012 177.039 82.3213C177.156 82.3864 177.244 82.4788 177.304 82.5984C177.363 82.718 177.369 82.8397 177.321 82.9634C177.273 83.0937 177.186 83.185 177.061 83.2374C176.935 83.2898 176.813 83.2854 176.696 83.2244C175.819 82.8038 175.142 82.1969 174.666 81.4039C174.19 80.6108 173.952 79.7669 173.952 78.872C173.952 77.9837 174.185 77.1446 174.651 76.3549C175.117 75.5651 175.786 74.9599 176.657 74.5393C176.774 74.4782 176.897 74.4723 177.026 74.5213C177.155 74.5704 177.247 74.6601 177.301 74.7904C177.356 74.9075 177.355 75.0259 177.299 75.1455C177.243 75.2651 177.156 75.3575 177.039 75.4226C176.399 75.7319 175.885 76.1957 175.498 76.8139C175.111 77.432 174.917 78.1181 174.917 78.872ZM182.637 83.697C181.298 83.697 180.159 83.2277 179.22 82.2891C178.282 81.3505 177.812 80.2114 177.812 78.872C177.812 77.5325 178.282 76.3934 179.22 75.4548C180.159 74.5162 181.298 74.0469 182.637 74.0469C183.205 74.0469 183.742 74.1372 184.249 74.3178C184.757 74.4985 185.218 74.7542 185.633 75.0849C185.739 75.1674 185.794 75.2727 185.798 75.401C185.802 75.5292 185.755 75.6433 185.655 75.7431C185.562 75.8363 185.448 75.8851 185.315 75.8897C185.181 75.8942 185.058 75.8552 184.945 75.7728C184.619 75.5286 184.263 75.3408 183.876 75.2092C183.489 75.0777 183.076 75.0119 182.637 75.0119C181.565 75.0119 180.654 75.3872 179.903 76.1377C179.152 76.8883 178.777 77.7997 178.777 78.872C178.777 79.9442 179.152 80.8556 179.903 81.6062C180.654 82.3567 181.565 82.732 182.637 82.732C183.076 82.732 183.489 82.6662 183.876 82.5347C184.263 82.4031 184.619 82.2153 184.945 81.9711C185.058 81.8887 185.181 81.8497 185.315 81.8542C185.448 81.8588 185.562 81.9076 185.655 82.0008C185.755 82.1006 185.802 82.2147 185.798 82.3429C185.794 82.4712 185.739 82.5765 185.633 82.659C185.218 82.9898 184.757 83.2454 184.249 83.4261C183.742 83.6067 183.205 83.697 182.637 83.697ZM186.886 79.3544H182.514C182.377 79.3544 182.262 79.3083 182.17 79.2159C182.077 79.1235 182.031 79.0089 182.031 78.872C182.031 78.735 182.077 78.6204 182.17 78.528C182.262 78.4356 182.377 78.3895 182.514 78.3895H186.886L186.035 77.5382C185.946 77.4492 185.9 77.3372 185.898 77.2023C185.896 77.0675 185.941 76.9535 186.035 76.8603C186.128 76.7671 186.241 76.7205 186.374 76.7205C186.506 76.7205 186.619 76.7671 186.713 76.8603L188.317 78.4649C188.434 78.5812 188.492 78.7169 188.492 78.872C188.492 79.027 188.434 79.1627 188.317 79.279L186.713 80.8836C186.624 80.9727 186.512 81.0183 186.377 81.0203C186.242 81.0224 186.128 80.9768 186.035 80.8836C185.941 80.7904 185.895 80.6774 185.895 80.5447C185.895 80.4119 185.941 80.2989 186.035 80.2057L186.886 79.3544Z" fill="white"/>
</g>
<path d="M198.667 77.0516C198.528 76.7839 198.335 76.5832 198.088 76.4494C197.841 76.3104 197.556 76.241 197.231 76.241C196.876 76.241 196.56 76.3207 196.282 76.4803C196.004 76.6398 195.785 76.8663 195.626 77.1597C195.471 77.453 195.394 77.7927 195.394 78.1787C195.394 78.5647 195.471 78.907 195.626 79.2055C195.785 79.4989 196.004 79.7253 196.282 79.8849C196.56 80.0444 196.876 80.1242 197.231 80.1242C197.71 80.1242 198.099 79.9904 198.397 79.7227C198.696 79.4551 198.878 79.0923 198.945 78.6342H196.93V77.9317H199.887V78.6188C199.83 79.0357 199.681 79.4191 199.439 79.7691C199.203 80.119 198.891 80.3995 198.505 80.6106C198.124 80.8164 197.7 80.9194 197.231 80.9194C196.727 80.9194 196.266 80.8036 195.849 80.572C195.433 80.3352 195.101 80.0084 194.854 79.5915C194.612 79.1746 194.491 78.7037 194.491 78.1787C194.491 77.6537 194.612 77.1828 194.854 76.7659C195.101 76.349 195.433 76.0248 195.849 75.7932C196.272 75.5564 196.732 75.4381 197.231 75.4381C197.803 75.4381 198.31 75.5796 198.752 75.8627C199.2 76.1406 199.524 76.5369 199.725 77.0516H198.667ZM204.654 78.6419C204.654 78.8015 204.644 78.9456 204.623 79.0743H201.373C201.398 79.4139 201.525 79.6867 201.751 79.8926C201.977 80.0985 202.255 80.2014 202.585 80.2014C203.058 80.2014 203.393 80.0032 203.588 79.6069H204.538C204.409 79.9981 204.175 80.3198 203.835 80.572C203.501 80.819 203.084 80.9425 202.585 80.9425C202.178 80.9425 201.813 80.8525 201.489 80.6723C201.169 80.487 200.917 80.2297 200.732 79.9003C200.552 79.5658 200.462 79.1798 200.462 78.7423C200.462 78.3048 200.549 77.9214 200.724 77.592C200.904 77.2574 201.154 77.0001 201.473 76.82C201.797 76.6398 202.168 76.5498 202.585 76.5498C202.986 76.5498 203.344 76.6373 203.658 76.8122C203.972 76.9872 204.216 77.2343 204.391 77.5534C204.566 77.8673 204.654 78.2302 204.654 78.6419ZM203.735 78.364C203.73 78.0398 203.614 77.7798 203.388 77.5843C203.161 77.3887 202.881 77.2909 202.546 77.2909C202.243 77.2909 201.983 77.3887 201.766 77.5843C201.55 77.7747 201.422 78.0346 201.38 78.364H203.735ZM207.666 76.5498C208.001 76.5498 208.299 76.6192 208.562 76.7582C208.829 76.8972 209.038 77.103 209.187 77.3758C209.336 77.6486 209.411 77.978 209.411 78.364V80.873H208.538V78.4952C208.538 78.1144 208.443 77.8236 208.253 77.6229C208.062 77.417 207.803 77.3141 207.473 77.3141C207.144 77.3141 206.881 77.417 206.686 77.6229C206.495 77.8236 206.4 78.1144 206.4 78.4952V80.873H205.52V76.6192H206.4V77.1056C206.544 76.9306 206.727 76.7942 206.948 76.6964C207.175 76.5987 207.414 76.5498 207.666 76.5498ZM214.432 78.6419C214.432 78.8015 214.422 78.9456 214.401 79.0743H211.151C211.177 79.4139 211.303 79.6867 211.529 79.8926C211.756 80.0985 212.034 80.2014 212.363 80.2014C212.837 80.2014 213.171 80.0032 213.367 79.6069H214.316C214.188 79.9981 213.954 80.3198 213.614 80.572C213.279 80.819 212.862 80.9425 212.363 80.9425C211.957 80.9425 211.591 80.8525 211.267 80.6723C210.948 80.487 210.696 80.2297 210.51 79.9003C210.33 79.5658 210.24 79.1798 210.24 78.7423C210.24 78.3048 210.328 77.9214 210.503 77.592C210.683 77.2574 210.932 77.0001 211.251 76.82C211.576 76.6398 211.946 76.5498 212.363 76.5498C212.765 76.5498 213.122 76.6373 213.436 76.8122C213.75 76.9872 213.995 77.2343 214.17 77.5534C214.345 77.8673 214.432 78.2302 214.432 78.6419ZM213.513 78.364C213.508 78.0398 213.393 77.7798 213.166 77.5843C212.94 77.3887 212.659 77.2909 212.325 77.2909C212.021 77.2909 211.761 77.3887 211.545 77.5843C211.329 77.7747 211.2 78.0346 211.159 78.364H213.513ZM216.178 77.2369C216.307 77.0207 216.477 76.8534 216.688 76.735C216.904 76.6115 217.159 76.5498 217.452 76.5498V77.4607H217.228C216.883 77.4607 216.621 77.5482 216.441 77.7232C216.266 77.8982 216.178 78.2019 216.178 78.6342V80.873H215.298V76.6192H216.178V77.2369ZM217.968 78.7268C217.968 78.2997 218.055 77.9214 218.23 77.592C218.41 77.2626 218.652 77.0078 218.956 76.8277C219.265 76.6424 219.604 76.5498 219.975 76.5498C220.31 76.5498 220.6 76.6167 220.847 76.7505C221.1 76.8792 221.3 77.0413 221.45 77.2369V76.6192H222.337V80.873H221.45V80.24C221.3 80.4407 221.097 80.608 220.84 80.7418C220.582 80.8756 220.289 80.9425 219.96 80.9425C219.594 80.9425 219.26 80.8499 218.956 80.6646C218.652 80.4742 218.41 80.2117 218.23 79.8771C218.055 79.5375 217.968 79.154 217.968 78.7268ZM221.45 78.7423C221.45 78.4489 221.388 78.1942 221.264 77.978C221.146 77.7618 220.989 77.5971 220.793 77.4839C220.598 77.3707 220.387 77.3141 220.16 77.3141C219.934 77.3141 219.723 77.3707 219.527 77.4839C219.332 77.592 219.172 77.7541 219.049 77.9703C218.93 78.1813 218.871 78.4335 218.871 78.7268C218.871 79.0202 218.93 79.2775 219.049 79.4989C219.172 79.7202 219.332 79.89 219.527 80.0084C219.728 80.1216 219.939 80.1782 220.16 80.1782C220.387 80.1782 220.598 80.1216 220.793 80.0084C220.989 79.8952 221.146 79.7305 221.264 79.5143C221.388 79.293 221.45 79.0357 221.45 78.7423ZM224.52 77.3372V79.6919C224.52 79.8514 224.556 79.9672 224.628 80.0393C224.705 80.1062 224.834 80.1396 225.014 80.1396H225.555V80.873H224.86C224.464 80.873 224.16 80.7804 223.949 80.5951C223.738 80.4098 223.632 80.1088 223.632 79.6919V77.3372H223.131V76.6192H223.632V75.5616H224.52V76.6192H225.555V77.3372H224.52ZM230.265 78.6419C230.265 78.8015 230.254 78.9456 230.234 79.0743H226.983C227.009 79.4139 227.135 79.6867 227.362 79.8926C227.588 80.0985 227.866 80.2014 228.196 80.2014C228.669 80.2014 229.004 80.0032 229.199 79.6069H230.149C230.02 79.9981 229.786 80.3198 229.446 80.572C229.112 80.819 228.695 80.9425 228.196 80.9425C227.789 80.9425 227.423 80.8525 227.099 80.6723C226.78 80.487 226.528 80.2297 226.343 79.9003C226.163 79.5658 226.072 79.1798 226.072 78.7423C226.072 78.3048 226.16 77.9214 226.335 77.592C226.515 77.2574 226.765 77.0001 227.084 76.82C227.408 76.6398 227.779 76.5498 228.196 76.5498C228.597 76.5498 228.955 76.6373 229.269 76.8122C229.583 76.9872 229.827 77.2343 230.002 77.5534C230.177 77.8673 230.265 78.2302 230.265 78.6419ZM229.346 78.364C229.341 78.0398 229.225 77.7798 228.998 77.5843C228.772 77.3887 228.491 77.2909 228.157 77.2909C227.853 77.2909 227.593 77.3887 227.377 77.5843C227.161 77.7747 227.032 78.0346 226.991 78.364H229.346ZM235.923 80.873L234.688 78.7268H234.016V80.873H233.136V75.5075H234.989C235.401 75.5075 235.748 75.5796 236.031 75.7237C236.319 75.8678 236.533 76.0608 236.672 76.3027C236.816 76.5446 236.888 76.8148 236.888 77.1133C236.888 77.4633 236.785 77.7824 236.579 78.0706C236.378 78.3537 236.067 78.5467 235.645 78.6496L236.973 80.873H235.923ZM234.016 78.0243H234.989C235.318 78.0243 235.565 77.942 235.73 77.7773C235.9 77.6126 235.985 77.3913 235.985 77.1133C235.985 76.8354 235.902 76.6192 235.738 76.4648C235.573 76.3053 235.323 76.2255 234.989 76.2255H234.016V78.0243ZM241.913 78.6419C241.913 78.8015 241.902 78.9456 241.882 79.0743H238.632C238.657 79.4139 238.783 79.6867 239.01 79.8926C239.236 80.0985 239.514 80.2014 239.844 80.2014C240.317 80.2014 240.652 80.0032 240.847 79.6069H241.797C241.668 79.9981 241.434 80.3198 241.094 80.572C240.76 80.819 240.343 80.9425 239.844 80.9425C239.437 80.9425 239.072 80.8525 238.747 80.6723C238.428 80.487 238.176 80.2297 237.991 79.9003C237.811 79.5658 237.721 79.1798 237.721 78.7423C237.721 78.3048 237.808 77.9214 237.983 77.592C238.163 77.2574 238.413 77.0001 238.732 76.82C239.056 76.6398 239.427 76.5498 239.844 76.5498C240.245 76.5498 240.603 76.6373 240.917 76.8122C241.231 76.9872 241.475 77.2343 241.65 77.5534C241.825 77.8673 241.913 78.2302 241.913 78.6419ZM240.994 78.364C240.989 78.0398 240.873 77.7798 240.646 77.5843C240.42 77.3887 240.14 77.2909 239.805 77.2909C239.501 77.2909 239.241 77.3887 239.025 77.5843C238.809 77.7747 238.68 78.0346 238.639 78.364H240.994ZM243.659 77.2446C243.808 77.049 244.011 76.8843 244.269 76.7505C244.526 76.6167 244.817 76.5498 245.141 76.5498C245.512 76.5498 245.849 76.6424 246.152 76.8277C246.461 77.0078 246.703 77.2626 246.878 77.592C247.053 77.9214 247.141 78.2997 247.141 78.7268C247.141 79.154 247.053 79.5375 246.878 79.8771C246.703 80.2117 246.461 80.4742 246.152 80.6646C245.849 80.8499 245.512 80.9425 245.141 80.9425C244.817 80.9425 244.529 80.8782 244.276 80.7495C244.024 80.6157 243.818 80.451 243.659 80.2554V82.8957H242.779V76.6192H243.659V77.2446ZM246.245 78.7268C246.245 78.4335 246.183 78.1813 246.06 77.9703C245.941 77.7541 245.782 77.592 245.581 77.4839C245.386 77.3707 245.175 77.3141 244.948 77.3141C244.727 77.3141 244.516 77.3707 244.315 77.4839C244.119 77.5971 243.96 77.7618 243.836 77.978C243.718 78.1942 243.659 78.4489 243.659 78.7423C243.659 79.0357 243.718 79.293 243.836 79.5143C243.96 79.7305 244.119 79.8952 244.315 80.0084C244.516 80.1216 244.727 80.1782 244.948 80.1782C245.175 80.1782 245.386 80.1216 245.581 80.0084C245.782 79.89 245.941 79.7202 246.06 79.4989C246.183 79.2775 246.245 79.0202 246.245 78.7268ZM249.856 80.9425C249.455 80.9425 249.092 80.8525 248.767 80.6723C248.443 80.487 248.188 80.2297 248.003 79.9003C247.818 79.5658 247.725 79.1798 247.725 78.7423C247.725 78.31 247.82 77.9265 248.011 77.592C248.201 77.2574 248.461 77.0001 248.791 76.82C249.12 76.6398 249.488 76.5498 249.895 76.5498C250.301 76.5498 250.669 76.6398 250.999 76.82C251.328 77.0001 251.588 77.2574 251.778 77.592C251.969 77.9265 252.064 78.31 252.064 78.7423C252.064 79.1746 251.966 79.558 251.771 79.8926C251.575 80.2271 251.307 80.487 250.968 80.6723C250.633 80.8525 250.263 80.9425 249.856 80.9425ZM249.856 80.1782C250.082 80.1782 250.293 80.1242 250.489 80.0161C250.69 79.908 250.852 79.7459 250.975 79.5297C251.099 79.3136 251.161 79.0511 251.161 78.7423C251.161 78.4335 251.102 78.1736 250.983 77.9626C250.865 77.7464 250.708 77.5843 250.512 77.4762C250.317 77.3681 250.106 77.3141 249.879 77.3141C249.653 77.3141 249.442 77.3681 249.246 77.4762C249.056 77.5843 248.904 77.7464 248.791 77.9626C248.677 78.1736 248.621 78.4335 248.621 78.7423C248.621 79.2003 248.737 79.5555 248.968 79.8077C249.205 80.0547 249.501 80.1782 249.856 80.1782ZM253.814 77.2369C253.943 77.0207 254.113 76.8534 254.324 76.735C254.54 76.6115 254.795 76.5498 255.088 76.5498V77.4607H254.864C254.519 77.4607 254.257 77.5482 254.077 77.7232C253.902 77.8982 253.814 78.2019 253.814 78.6342V80.873H252.934V76.6192H253.814V77.2369ZM256.924 77.3372V79.6919C256.924 79.8514 256.96 79.9672 257.032 80.0393C257.109 80.1062 257.238 80.1396 257.418 80.1396H257.958V80.873H257.263C256.867 80.873 256.563 80.7804 256.352 80.5951C256.141 80.4098 256.036 80.1088 256.036 79.6919V77.3372H255.534V76.6192H256.036V75.5616H256.924V76.6192H257.958V77.3372H256.924Z" fill="white"/>
<path d="M99.4052 132.455H256.263C261.404 132.455 265.571 136.162 265.571 140.735C265.571 145.307 261.404 149.014 256.263 149.014H99.4052C94.2648 149.014 90.0977 145.307 90.0977 140.735C90.0977 136.162 94.2648 132.455 99.4052 132.455Z" fill="white"/>
<path d="M89.3223 129.488C89.2151 129.491 89.1076 129.494 89.0003 129.496C88.9544 129.602 88.9048 129.707 88.8477 129.81L89.3223 129.488Z" fill="#139AB3"/>
<path d="M92.9697 117.994C92.9906 118.111 93.0225 118.225 93.0651 118.337C93.0475 118.22 93.0155 118.105 92.9697 117.994Z" fill="#139AB3"/>
<path d="M77.1702 248.382L76.8558 248.355C66.1878 247.375 56.5439 242.272 50.4863 234.399C48.8271 232.206 47.4849 229.835 46.4916 227.343L46.3961 227.105L46.6788 227.085C50.0535 226.843 53.5205 226.334 55.0606 226.091L45.1294 223.098L45.068 222.836C44.4792 220.375 45.6327 217.844 47.9812 216.442C50.3361 214.973 53.4589 214.926 55.8683 216.323C56.9496 216.938 58.0805 217.546 59.1742 218.135C62.9324 220.157 66.8187 222.248 69.7323 225.109C74.1506 229.534 76.0872 235.497 75.0027 241.337L77.1702 248.382Z" fill="#F3F3F3"/>
<path d="M113.27 243.985L118.164 243.984L120.493 227.189L113.269 227.19L113.27 243.985Z" fill="#EAB4BC"/>
<path d="M113.097 248.53L128.149 248.529V248.36C128.149 245.482 125.526 243.149 122.29 243.148L119.54 241.293L114.411 243.149L113.097 243.149L113.097 248.53Z" fill="#191C24"/>
<path d="M74.043 231.925L77.9579 234.537L91.1512 222.346L85.3723 218.49L74.043 231.925Z" fill="#EAB4BC"/>
<path d="M70.8408 235.47L82.8812 243.505L82.9954 243.37C84.937 241.068 84.413 237.801 81.825 236.074L80.8772 233.122L75.5219 231.867L74.4708 231.166L70.8408 235.47Z" fill="#191C24"/>
<path d="M90.3133 165.174C90.3133 165.174 90.5835 171.73 90.9244 176.988C90.9803 177.85 88.7091 178.787 88.768 179.725C88.807 180.348 89.2339 180.953 89.2735 181.602C89.3154 182.287 88.726 182.893 88.768 183.601C88.809 184.293 89.4814 185.087 89.5219 185.795C89.9584 193.418 91.5406 202.543 89.9562 205.094C89.1754 206.351 79.2227 223.769 79.2227 223.769C79.2227 223.769 84.768 231.168 86.3524 228.701C88.445 225.444 104.573 210.203 104.573 207.293C104.573 204.386 108.304 182.6 108.304 182.6L110.906 195.493L112.099 198.047L111.724 199.547L112.495 201.571L112.536 203.574L113.287 207.293C113.287 207.293 111.029 236.27 112.301 237.077C113.576 237.887 119.751 239.342 120.48 237.887C121.205 236.432 125.923 207.645 125.923 207.645C125.923 207.645 126.683 194.453 127.507 182.192C127.555 181.48 128.117 180.62 128.161 179.919C128.212 179.105 127.856 178.048 127.903 177.259C127.955 176.353 128.406 175.716 128.45 174.849C128.787 168.151 126.897 159.994 126.295 159.191C124.477 156.767 122.841 154.829 122.841 154.829C122.841 154.829 98.3532 147.672 91.8097 154.944L90.3133 165.174Z" fill="#191C24"/>
<path d="M114.737 97.7505L105.03 96.0234L100.5 101.492C92.0468 108.886 91.9194 115.411 93.4284 125.871V140.551L92.3363 150.392C92.3363 150.392 88.47 157.585 92.4577 159.26C96.4453 160.935 122.638 160.792 125.139 160.124C127.64 159.455 125.472 158.634 124.816 155.518C123.582 149.665 124.407 152.489 124.492 150.625C125.709 123.893 122.874 112.918 122.586 110.033L117.649 102.068L114.737 97.7505Z" fill="#B6E4ED"/>
<path d="M165.901 119.303C164.889 121.009 162.515 121.661 160.598 120.761C160.393 120.665 160.199 120.554 160.017 120.427L139.053 132.268L139.113 125.821L159.478 115.309C160.929 113.862 163.423 113.735 165.049 115.025C166.41 116.105 166.762 117.874 165.901 119.303Z" fill="#EAB4BC"/>
<path d="M107.072 105.218L104.685 104.993C102.48 104.789 100.316 105.63 98.9844 107.206C98.4743 107.804 98.108 108.489 97.9081 109.219L97.9067 109.225C97.308 111.42 98.247 113.72 100.289 115.062L108.533 120.468C114.318 127.422 125.19 132.035 137.943 135.783L157.766 124.832L150.755 117.278L137.158 123.76L116.947 109.842L116.936 109.834L109.243 105.426L107.072 105.218Z" fill="#B6E4ED"/>
<path d="M111.457 93.5128C117.709 93.5128 122.777 89.0044 122.777 83.4429C122.777 77.8815 117.709 73.373 111.457 73.373C105.205 73.373 100.137 77.8815 100.137 83.4429C100.137 89.0044 105.205 93.5128 111.457 93.5128Z" fill="#EAB4BC"/>
<path d="M122.922 73.8016C122.456 75.0887 122.04 73.4561 120.507 73.7498C118.663 74.103 116.517 73.9817 115.007 72.9763C112.757 71.5078 109.842 71.1125 107.202 71.918C104.618 72.7312 100.29 73.3045 99.6164 75.6678C99.3824 76.4893 99.2895 77.3808 98.7222 78.0616C98.2263 78.6569 97.4435 78.9963 96.7889 79.4544C94.5787 81.0013 96.268 85.3963 97.3141 87.7186C98.3602 90.0408 100.76 91.7325 103.398 92.5991C105.951 93.4375 108.721 93.5853 111.444 93.5195C111.918 92.4268 111.713 91.1647 111.323 90.0319C110.899 88.8056 110.273 87.6221 110.096 86.349C109.92 85.0759 110.308 83.6298 111.508 82.9185C112.611 82.2647 114.406 82.663 114.825 83.7201C114.58 82.3985 116.085 81.1196 117.637 80.8947C119.303 80.6532 120.969 81.1883 122.631 81.4546C124.292 81.7209 123.702 75.4993 122.922 73.8016Z" fill="#191C24"/>
<path d="M154.017 81.0783C154.699 82.9082 153.585 84.8841 151.528 85.4916C151.309 85.5564 151.084 85.6038 150.855 85.6333L145.947 107.288L140.759 102.786L146.33 82.4353C146.16 80.5026 147.784 78.8137 149.957 78.663C151.775 78.537 153.453 79.5355 154.017 81.0783Z" fill="#EAB4BC"/>
<path d="M101.86 109.086L100.026 110.462C98.3338 111.737 97.5174 113.707 97.8746 115.654C98.0066 116.395 98.3086 117.105 98.7619 117.738L98.7656 117.743C100.132 119.647 102.648 120.637 105.151 120.255L115.243 118.706C124.889 119.807 136.158 116.021 148.027 110.43L152.867 90.1234L141.885 89.3945L137.73 102.61L112.449 105.948L112.434 105.95L103.532 107.836L101.86 109.086Z" fill="#B6E4ED"/>
<path d="M159.329 248.876L36.1785 249C35.8805 248.999 35.6397 248.783 35.6406 248.518C35.6416 248.254 35.8818 248.041 36.1785 248.04L159.329 247.916C159.627 247.917 159.867 248.132 159.866 248.398C159.865 248.661 159.625 248.875 159.329 248.876Z" fill="#F3F3F3"/>
<path d="M30.2084 42.9295C32.6934 42.9295 34.7079 41.0976 34.7079 38.8378C34.7079 36.578 32.6934 34.7461 30.2084 34.7461C27.7235 34.7461 25.709 36.578 25.709 38.8378C25.709 41.0976 27.7235 42.9295 30.2084 42.9295Z" fill="#F3F3F3"/>
<path d="M45.7524 42.9295C48.2374 42.9295 50.2519 41.0976 50.2519 38.8378C50.2519 36.578 48.2374 34.7461 45.7524 34.7461C43.2674 34.7461 41.2529 36.578 41.2529 38.8378C41.2529 41.0976 43.2674 42.9295 45.7524 42.9295Z" fill="#F3F3F3"/>
<path d="M61.2944 42.9295C63.7794 42.9295 65.7938 41.0976 65.7938 38.8378C65.7938 36.578 63.7794 34.7461 61.2944 34.7461C58.8094 34.7461 56.7949 36.578 56.7949 38.8378C56.7949 41.0976 58.8094 42.9295 61.2944 42.9295Z" fill="#F3F3F3"/>
<path d="M79.0183 42.0712C78.8801 42.0712 78.7421 42.0235 78.638 41.9288L75.602 39.168C75.3996 38.9841 75.3996 38.6901 75.602 38.5062L78.638 35.7456C78.844 35.5589 79.1812 35.5559 79.3903 35.7382C79.6005 35.921 79.6042 36.2208 79.3986 36.4075L76.7266 38.8371L79.3986 41.2669C79.6041 41.4536 79.6005 41.7534 79.3903 41.9362C79.2869 42.0263 79.1526 42.0712 79.0183 42.0712Z" fill="#F3F3F3"/>
<path d="M84.12 42.0715C83.9857 42.0715 83.8514 42.0267 83.748 41.9365C83.5378 41.7537 83.5341 41.4542 83.7397 41.2673L86.4114 38.8374L83.7397 36.4079C83.5342 36.2211 83.5378 35.9214 83.748 35.7386C83.9576 35.5556 84.2948 35.559 84.5003 35.746L87.5361 38.5065C87.7384 38.6905 87.7384 38.9844 87.5361 39.1684L84.5003 41.9291C84.3961 42.0239 84.2582 42.0715 84.12 42.0715Z" fill="white"/>
<path d="M242.947 35.2207H237.302C236.658 35.2207 236.137 35.6845 236.137 36.2572V41.2836C236.137 41.8563 236.658 42.3202 237.302 42.3202H242.947C243.591 42.3202 244.118 41.8563 244.118 41.2836V36.2572C244.118 35.6845 243.591 35.2207 242.947 35.2207Z" fill="white"/>
<path d="M229.113 35.2207H223.468C222.824 35.2207 222.303 35.6845 222.303 36.2572V41.2836C222.303 41.8563 222.824 42.3202 223.468 42.3202H229.113C229.757 42.3202 230.284 41.8563 230.284 41.2836V36.2572C230.284 35.6845 229.757 35.2207 229.113 35.2207Z" fill="white"/>
<path d="M255.982 35.457H250.337C249.693 35.457 249.172 35.9209 249.172 36.4936V41.52C249.172 42.0927 249.693 42.5565 250.337 42.5565H255.982C256.626 42.5565 257.153 42.0927 257.153 41.52V36.4936C257.153 35.9209 256.626 35.457 255.982 35.457Z" fill="white"/>
<path d="M170.895 37.3672H125.77C124.983 37.3672 124.35 37.9352 124.35 38.6309C124.35 39.3267 124.983 39.8946 125.77 39.8946H170.895C171.677 39.8946 172.315 39.3266 172.315 38.6309C172.315 37.9352 171.677 37.3672 170.895 37.3672Z" fill="white"/>
<defs>
<clipPath id="clip0_2645_25523">
<rect width="15.4403" height="15.4403" fill="white" transform="translate(173.618 71.1523)"/>
</clipPath>
</defs>
</svg>
